<?xml version="1.0" encoding="UTF-8"?>
<svg version="1.1" xmlns="http://www.w3.org/2000/svg" width="874" height="873">
<path d="M0 0 C288.42 0 576.84 0 874 0 C874 288.09 874 576.18 874 873 C585.58 873 297.16 873 0 873 C0 584.91 0 296.82 0 0 Z " fill="#F5F5F7" transform="translate(0,0)"/>
<path d="M0 0 C0.74377899 -0.00217529 1.48755798 -0.00435059 2.25387573 -0.0065918 C12.7047876 -0.003114 22.85218516 0.85176585 33.1875 2.375 C34.54742065 2.57125977 34.54742065 2.57125977 35.93481445 2.77148438 C51.57021651 5.1167128 66.2785154 9.16556867 81.1875 14.375 C82.08082031 14.68050781 82.97414063 14.98601562 83.89453125 15.30078125 C93.0610125 18.6880449 101.60190402 23.75323812 110.1875 28.375 C111.55981834 29.11082163 112.93220846 29.8465094 114.3046875 30.58203125 C117.26922042 32.17307173 120.22976698 33.77134583 123.1875 35.375 C123.1875 36.035 123.1875 36.695 123.1875 37.375 C123.74695313 37.63539063 124.30640625 37.89578125 124.8828125 38.1640625 C132.45912967 42.14483932 139.08781225 48.01888022 145.5625 53.5625 C146.14499512 54.06120605 146.72749023 54.55991211 147.32763672 55.07373047 C150.75823592 58.04599451 153.98463699 61.15574008 157.1875 64.375 C158.25890738 65.26456301 159.3409653 66.14160163 160.4375 67 C180.53900782 84.16824058 195.86530172 111.94542895 205.31225586 136.20947266 C206.21973636 138.45475913 207.21177242 140.64717408 208.22265625 142.84765625 C224.68097352 179.60350828 225.76126874 226.51706099 217.1875 265.375 C216.83496614 267.11412404 216.48466267 268.85370185 216.13671875 270.59375 C214.65711941 277.75801492 212.87393957 284.56192245 210.1875 291.375 C209.58808594 292.97794922 209.58808594 292.97794922 208.9765625 294.61328125 C206.30386626 301.67171058 203.38868012 308.54237361 200.1875 315.375 C199.53574816 316.80436389 198.88476497 318.23407841 198.234375 319.6640625 C197.53167479 321.19290365 196.82854927 322.72154939 196.125 324.25 C195.79653076 324.97606445 195.46806152 325.70212891 195.12963867 326.45019531 C193.21647712 330.56996863 191.13672714 333.88093571 188.1875 337.375 C187.14593173 339.02878778 186.12565978 340.6961437 185.125 342.375 C181.41856237 348.31014523 177.03357156 353.46785137 172.4453125 358.72265625 C170.2055515 361.13953864 170.2055515 361.13953864 169.1875 363.375 C168.5275 363.375 167.8675 363.375 167.1875 363.375 C166.96964844 363.90738281 166.75179688 364.43976563 166.52734375 364.98828125 C164.70083428 368.24191766 162.27658433 370.84708632 159.75 373.5625 C159.21431396 374.13911377 158.67862793 374.71572754 158.12670898 375.30981445 C153.1992386 380.51881311 147.87517402 385.01131622 142.1875 389.375 C141.16914062 390.18582031 140.15078125 390.99664063 139.1015625 391.83203125 C133.41267038 396.33790421 127.59260348 400.55434395 121.5 404.5 C120.89953857 404.89058594 120.29907715 405.28117187 119.68041992 405.68359375 C115.44084339 408.375 115.44084339 408.375 113.1875 408.375 C113.1875 409.035 113.1875 409.695 113.1875 410.375 C111.92058493 411.04908308 110.64879251 411.71400497 109.375 412.375 C108.66730469 412.74625 107.95960938 413.1175 107.23046875 413.5 C105.1875 414.375 105.1875 414.375 102.1875 414.375 C102.1875 415.035 102.1875 415.695 102.1875 416.375 C101.1975 416.7875 100.2075 417.2 99.1875 417.625 C96.59655096 418.72731232 94.11060385 419.92935519 91.625 421.25 C73.16171942 430.49915763 51.42989126 434.95340484 31.1875 438.375 C30.14255371 438.55377686 29.09760742 438.73255371 28.02099609 438.91674805 C19.25087798 440.30348668 10.68458653 440.72393232 1.8125 440.6875 C1.12450317 440.68634186 0.43650635 440.68518372 -0.27233887 440.68399048 C-16.29161984 440.63111623 -32.5993092 439.6352884 -48.0546875 435.12109375 C-50.53918123 434.44894318 -52.98917549 433.94010845 -55.515625 433.45703125 C-60.66139627 432.44647617 -65.66482835 431.12673505 -70.6875 429.625 C-71.55592529 429.36549561 -72.42435059 429.10599121 -73.3190918 428.83862305 C-79.29620574 426.98945168 -84.71442784 424.78589288 -90.20703125 421.76953125 C-92.71504333 420.42716196 -95.27127628 419.34009398 -97.89135742 418.23901367 C-101.56400459 416.58727923 -105.05263878 414.5937824 -108.5625 412.625 C-109.35237305 412.18397949 -110.14224609 411.74295898 -110.95605469 411.28857422 C-117.04994719 407.86029236 -122.98003692 404.23244913 -128.8125 400.375 C-129.47121094 399.96378906 -130.12992187 399.55257813 -130.80859375 399.12890625 C-132.17883642 398.26498881 -133.50399876 397.32985226 -134.8125 396.375 C-134.8125 395.715 -134.8125 395.055 -134.8125 394.375 C-135.34230469 394.15328125 -135.87210937 393.9315625 -136.41796875 393.703125 C-139.65852665 391.90575194 -142.33803177 389.54039924 -145.125 387.125 C-145.70459473 386.62701904 -146.28418945 386.12903809 -146.88134766 385.6159668 C-148.02212695 384.63575467 -149.16181539 383.65427126 -150.30029297 382.67138672 C-152.07460775 381.15029994 -153.882432 379.67184977 -155.6875 378.1875 C-159.46548141 374.92679722 -162.61354834 371.19310359 -165.8125 367.375 C-166.575625 366.488125 -167.33875 365.60125 -168.125 364.6875 C-176.35376653 355.01869932 -184.01322101 344.9041532 -190.3527832 333.8815918 C-191.28520682 332.2804556 -192.23768567 330.6907226 -193.21557617 329.11694336 C-197.00348556 323.01515555 -200.0613241 316.78933083 -202.875 310.1875 C-203.5239624 308.67530884 -203.5239624 308.67530884 -204.18603516 307.13256836 C-214.5167247 282.75549238 -221.24156866 255.93146329 -221.8125 229.375 C-221.84359863 228.41529297 -221.87469727 227.45558594 -221.90673828 226.46679688 C-222.41747756 209.64063252 -221.00756845 193.88436221 -217.8125 177.375 C-217.54608195 175.89620926 -217.28153992 174.41707835 -217.01953125 172.9375 C-215.52425943 164.87459778 -213.45667495 157.13488111 -210.8125 149.375 C-210.42707031 148.21226562 -210.04164063 147.04953125 -209.64453125 145.8515625 C-203.76765628 128.82357953 -195.52354179 111.8809392 -184.8125 97.375 C-184.14605469 96.43914062 -183.47960937 95.50328125 -182.79296875 94.5390625 C-180.8274881 91.79565738 -178.82962054 89.08059881 -176.8125 86.375 C-176.15636719 85.488125 -175.50023437 84.60125 -174.82421875 83.6875 C-174.20160156 82.8625 -173.57898438 82.0375 -172.9375 81.1875 C-172.38320313 80.45144531 -171.82890625 79.71539062 -171.2578125 78.95703125 C-170.78085937 78.43496094 -170.30390625 77.91289062 -169.8125 77.375 C-169.1525 77.375 -168.4925 77.375 -167.8125 77.375 C-167.57273437 76.818125 -167.33296875 76.26125 -167.0859375 75.6875 C-165.53178734 72.86523959 -163.6150826 70.74791393 -161.4375 68.375 C-160.28121094 67.1065625 -160.28121094 67.1065625 -159.1015625 65.8125 C-158.34617187 65.008125 -157.59078125 64.20375 -156.8125 63.375 C-156.09835937 62.611875 -155.38421875 61.84875 -154.6484375 61.0625 C-152.8125 59.375 -152.8125 59.375 -150.8125 59.375 C-150.8125 58.715 -150.8125 58.055 -150.8125 57.375 C-146.34191176 53.375 -146.34191176 53.375 -143.8125 53.375 C-143.8125 52.715 -143.8125 52.055 -143.8125 51.375 C-142.14090309 49.95037777 -140.39597098 48.61151752 -138.625 47.3125 C-138.08762207 46.91764404 -137.55024414 46.52278809 -136.99658203 46.1159668 C-135.27567903 44.85876676 -133.54611221 43.61460772 -131.8125 42.375 C-131.2570752 41.97764648 -130.70165039 41.58029297 -130.12939453 41.17089844 C-126.39498861 38.51400015 -122.61989526 35.92624695 -118.8125 33.375 C-117.67167969 32.60929687 -117.67167969 32.60929687 -116.5078125 31.828125 C-110.75081177 28.18134162 -104.63354423 25.2616113 -98.5 22.3125 C-97.64664063 21.9007251 -96.79328125 21.4889502 -95.9140625 21.06469727 C-65.45339963 6.65848067 -33.55178466 0.05234356 0 0 Z " fill="#7EAED9" transform="translate(438.8125,162.625)"/>
<path d="M0 0 C0.74377899 -0.00217529 1.48755798 -0.00435059 2.25387573 -0.0065918 C12.7047876 -0.003114 22.85218516 0.85176585 33.1875 2.375 C34.54742065 2.57125977 34.54742065 2.57125977 35.93481445 2.77148438 C51.57021651 5.1167128 66.2785154 9.16556867 81.1875 14.375 C82.08082031 14.68050781 82.97414063 14.98601562 83.89453125 15.30078125 C93.0610125 18.6880449 101.60190402 23.75323812 110.1875 28.375 C111.55981834 29.11082163 112.93220846 29.8465094 114.3046875 30.58203125 C117.26922042 32.17307173 120.22976698 33.77134583 123.1875 35.375 C123.1875 36.035 123.1875 36.695 123.1875 37.375 C123.74695313 37.63539063 124.30640625 37.89578125 124.8828125 38.1640625 C132.45912967 42.14483932 139.08781225 48.01888022 145.5625 53.5625 C146.14499512 54.06120605 146.72749023 54.55991211 147.32763672 55.07373047 C150.75823592 58.04599451 153.98463699 61.15574008 157.1875 64.375 C158.25890738 65.26456301 159.3409653 66.14160163 160.4375 67 C180.53869429 84.16797281 195.86695243 111.94610567 205.3125 136.21044922 C206.21806018 138.45059893 207.20900046 140.63706906 208.21875 142.83203125 C213.66455085 154.98933569 216.41484172 168.29165524 218.5625 181.375 C218.73007812 182.37595703 218.89765625 183.37691406 219.0703125 184.40820312 C220.19339557 191.76149269 220.36277439 198.94456414 220.1875 206.375 C219.33220703 206.53581055 218.47691406 206.69662109 217.59570312 206.86230469 C197.10712516 210.66709367 197.10712516 210.66709367 176.828125 215.43359375 C172.44565399 216.56682928 168.04263592 217.57682422 163.625 218.5625 C162.88596436 218.72959473 162.14692871 218.89668945 161.38549805 219.06884766 C160.32649292 219.3035376 160.32649292 219.3035376 159.24609375 219.54296875 C158.63048584 219.67985107 158.01487793 219.8167334 157.38061523 219.95776367 C154.33467613 220.53724825 151.25690979 220.93651289 148.1875 221.375 C148.1875 187.385 148.1875 153.395 148.1875 118.375 C135.9775 118.375 123.7675 118.375 111.1875 118.375 C110.5275 120.025 109.8675 121.675 109.1875 123.375 C108.02500587 125.66374743 106.84346314 127.92914672 105.625 130.1875 C105.27711426 130.8362207 104.92922852 131.48494141 104.57080078 132.15332031 C101.21669501 138.37832587 97.74362122 144.53509087 94.265625 150.69140625 C89.65535192 158.85456931 85.26998093 167.12444505 80.9375 175.4375 C75.85903197 185.1813675 70.5769666 194.80022093 65.1875 204.375 C61.88663828 201.29922361 60.09100366 197.66310172 58.0625 193.6875 C55.05685986 187.89790184 51.98182599 182.16644911 48.75 176.5 C43.67993496 167.57102757 38.9331466 158.47935383 34.1875 149.375 C32.73056934 146.58374919 31.27286863 143.79290561 29.81396484 141.00268555 C28.88461578 139.22487579 27.95646946 137.44643655 27.02978516 135.66723633 C26.60101074 134.84634521 26.17223633 134.0254541 25.73046875 133.1796875 C25.35946045 132.46796387 24.98845215 131.75624023 24.60620117 131.02294922 C22.51259833 127.11532292 20.34042233 123.2502602 18.1875 119.375 C6.6375 119.045 -4.9125 118.715 -16.8125 118.375 C-16.8125 168.205 -16.8125 218.035 -16.8125 269.375 C-21.7625 270.86 -21.7625 270.86 -26.8125 272.375 C-27.699375 272.766875 -28.58625 273.15875 -29.5 273.5625 C-32.63420887 274.66370852 -35.51333293 274.42492919 -38.8125 274.375 C-38.668125 273.28703125 -38.52375 272.1990625 -38.375 271.078125 C-36.44731553 256.07474262 -34.47912364 239.95531703 -42.8125 226.375 C-43.245625 225.65699219 -43.67875 224.93898438 -44.125 224.19921875 C-47.20672412 219.29574626 -50.27935446 215.93675721 -54.8125 212.375 C-54.8125 211.715 -54.8125 211.055 -54.8125 210.375 C-55.3384375 210.12363281 -55.864375 209.87226563 -56.40625 209.61328125 C-58.83563068 208.36309671 -61.17969399 206.997621 -63.53173828 205.60864258 C-70.42020457 201.56188112 -77.35725099 198.27591363 -84.8125 195.375 C-110.34349436 185.16904134 -110.34349436 185.16904134 -115.89453125 173.1328125 C-117.89907677 167.11064596 -117.92676642 161.64480198 -115.125 155.9375 C-109.95104518 150.20419872 -104.66040639 146.92096503 -96.93359375 146.05078125 C-81.94149926 145.51732022 -65.0557177 150.67587163 -52.8125 159.375 C-51.8225 159.375 -50.8325 159.375 -49.8125 159.375 C-46.00887066 149.16185059 -42.79408372 138.85494959 -39.8125 128.375 C-40.68519531 128.09398437 -41.55789063 127.81296875 -42.45703125 127.5234375 C-45.54182439 126.46764101 -48.50421952 125.28332206 -51.5 124 C-73.52189752 114.80612899 -99.85059983 110.23832768 -122.8125 119.375 C-130.06504099 122.40059992 -139.22634129 128.20268258 -142.8125 135.375 C-143.4725 135.375 -144.1325 135.375 -144.8125 135.375 C-145.080625 136.24125 -145.34875 137.1075 -145.625 138 C-146.8125 141.375 -146.8125 141.375 -148.25 144 C-154.55501595 157.61883445 -154.87547884 173.94854837 -150.19921875 188.125 C-142.76953645 205.53766387 -127.55860168 216.07460151 -110.5625 223.125 C-108.64749782 223.87923985 -106.73088413 224.62940396 -104.8125 225.375 C-93.4979194 230.05298826 -80.54875912 235.62852643 -73.8125 246.375 C-72.875 249.3125 -72.875 249.3125 -72.8125 252.375 C-72.70615234 253.40947266 -72.70615234 253.40947266 -72.59765625 254.46484375 C-72.23127209 259.69252024 -73.1040518 263.21114543 -76.1171875 267.515625 C-80.77303038 272.62203332 -86.36463233 276.00670523 -93.265625 276.578125 C-111.18442212 276.87844004 -126.76749981 271.87032996 -141.60546875 261.79296875 C-143.84113874 260.22837397 -143.84113874 260.22837397 -146.8125 259.375 C-148.44486282 263.05928336 -150.06705012 266.74796329 -151.6875 270.4375 C-152.14769531 271.47583984 -152.60789062 272.51417969 -153.08203125 273.58398438 C-155.36476326 278.79456831 -157.44832918 283.84775617 -158.8125 289.375 C-156.18782366 290.8547435 -153.56277507 292.33381943 -150.9375 293.8125 C-150.19113281 294.23337891 -149.44476563 294.65425781 -148.67578125 295.08789062 C-147.96035156 295.49072266 -147.24492187 295.89355469 -146.5078125 296.30859375 C-145.84797363 296.68040771 -145.18813477 297.05222168 -144.50830078 297.43530273 C-143.29135349 298.10965202 -142.05691397 298.75279302 -140.8125 299.375 C-140.8125 300.035 -140.8125 300.695 -140.8125 301.375 C-151.60061581 305.0784077 -162.41452535 308.65002587 -173.375 311.8125 C-174.26018311 312.07111816 -175.14536621 312.32973633 -176.05737305 312.59619141 C-177.29934448 312.94883057 -177.29934448 312.94883057 -178.56640625 313.30859375 C-179.29158447 313.51540771 -180.0167627 313.72222168 -180.76391602 313.93530273 C-182.8125 314.375 -182.8125 314.375 -186.8125 314.375 C-186.8125 315.035 -186.8125 315.695 -186.8125 316.375 C-191.02036142 317.97799483 -194.33065878 318.47543342 -198.8125 318.375 C-207.30966213 300.67053826 -214.05588697 282.99279199 -217.62280273 263.60131836 C-217.99822871 261.57207415 -218.39191268 259.54695933 -218.78710938 257.52148438 C-220.56951675 248.14381881 -221.44660089 238.90860243 -221.8125 229.375 C-221.85737549 228.25778564 -221.90225098 227.14057129 -221.94848633 225.98950195 C-222.47964445 209.3511955 -220.97075414 193.69413756 -217.8125 177.375 C-217.54608195 175.89620926 -217.28153992 174.41707835 -217.01953125 172.9375 C-215.52425943 164.87459778 -213.45667495 157.13488111 -210.8125 149.375 C-210.42707031 148.21226562 -210.04164063 147.04953125 -209.64453125 145.8515625 C-203.76765628 128.82357953 -195.52354179 111.8809392 -184.8125 97.375 C-184.14605469 96.43914062 -183.47960937 95.50328125 -182.79296875 94.5390625 C-180.8274881 91.79565738 -178.82962054 89.08059881 -176.8125 86.375 C-176.15636719 85.488125 -175.50023437 84.60125 -174.82421875 83.6875 C-174.20160156 82.8625 -173.57898438 82.0375 -172.9375 81.1875 C-172.38320313 80.45144531 -171.82890625 79.71539062 -171.2578125 78.95703125 C-170.78085937 78.43496094 -170.30390625 77.91289062 -169.8125 77.375 C-169.1525 77.375 -168.4925 77.375 -167.8125 77.375 C-167.57273437 76.818125 -167.33296875 76.26125 -167.0859375 75.6875 C-165.53178734 72.86523959 -163.6150826 70.74791393 -161.4375 68.375 C-160.28121094 67.1065625 -160.28121094 67.1065625 -159.1015625 65.8125 C-158.34617187 65.008125 -157.59078125 64.20375 -156.8125 63.375 C-156.09835937 62.611875 -155.38421875 61.84875 -154.6484375 61.0625 C-152.8125 59.375 -152.8125 59.375 -150.8125 59.375 C-150.8125 58.715 -150.8125 58.055 -150.8125 57.375 C-146.34191176 53.375 -146.34191176 53.375 -143.8125 53.375 C-143.8125 52.715 -143.8125 52.055 -143.8125 51.375 C-142.14090309 49.95037777 -140.39597098 48.61151752 -138.625 47.3125 C-138.08762207 46.91764404 -137.55024414 46.52278809 -136.99658203 46.1159668 C-135.27567903 44.85876676 -133.54611221 43.61460772 -131.8125 42.375 C-131.2570752 41.97764648 -130.70165039 41.58029297 -130.12939453 41.17089844 C-126.39498861 38.51400015 -122.61989526 35.92624695 -118.8125 33.375 C-117.67167969 32.60929687 -117.67167969 32.60929687 -116.5078125 31.828125 C-110.75081177 28.18134162 -104.63354423 25.2616113 -98.5 22.3125 C-97.64664063 21.9007251 -96.79328125 21.4889502 -95.9140625 21.06469727 C-65.45339963 6.65848067 -33.55178466 0.05234356 0 0 Z " fill="#5288C0" transform="translate(438.8125,162.625)"/>
<path d="M0 0 C11.55 0 23.1 0 35 0 C42.68331703 13.44580481 50.15659398 26.93621829 57.24609375 40.703125 C60.07548896 46.18440874 63.02619788 51.59602766 66 57 C71.09654988 66.28291218 76.05882768 75.63373336 81 85 C83.00976889 81.67247056 85.00579737 78.33687768 87 75 C87.82951172 73.62714844 87.82951172 73.62714844 88.67578125 72.2265625 C92.44778793 65.89652831 95.83646693 59.44636075 99.09594727 52.84423828 C101.91354773 47.14115972 104.91244313 41.56173749 108 36 C108.8340604 34.48086771 109.66731946 32.96129532 110.5 31.44140625 C111.43743899 29.73173738 112.37493959 28.02210229 113.3125 26.3125 C113.73829346 25.53551758 114.16408691 24.75853516 114.6027832 23.95800781 C119.01051863 15.93802787 123.51256344 7.977665 128 0 C140.21 0 152.42 0 165 0 C165 61.38 165 122.76 165 186 C153.12 186 141.24 186 129 186 C129 146.4 129 106.8 129 66 C128.01 68.31 127.02 70.62 126 73 C125.15310173 74.74696576 124.28934552 76.48589368 123.40625 78.21484375 C122.69662109 79.61573242 122.69662109 79.61573242 121.97265625 81.04492188 C120.99246445 82.97020577 120.01069805 84.89468883 119.02734375 86.81835938 C116.3400956 92.13061696 113.96447469 97.37868223 112 103 C111.34 103 110.68 103 110 103 C109.731875 103.845625 109.46375 104.69125 109.1875 105.5625 C106.81117036 112.44134897 103.65429646 118.52960597 99.9609375 124.75 C99.62320313 125.3275 99.28546875 125.905 98.9375 126.5 C98.63714844 127.0053125 98.33679688 127.510625 98.02734375 128.03125 C96.88295841 130.15658145 96.88295841 130.15658145 95.69921875 133.109375 C93.71637886 137.80796516 91.28355576 142.25911938 88.875 146.75 C87.97446456 148.43116957 87.07593642 150.11341634 86.1796875 151.796875 C85.78507324 152.53260742 85.39045898 153.26833984 84.98388672 154.02636719 C83.8810865 156.12299889 83.8810865 156.12299889 83 159 C82.34 159 81.68 159 81 159 C78 153.25 78 153.25 78 151 C77.34 151 76.68 151 76 151 C75.731875 150.3915625 75.46375 149.783125 75.1875 149.15625 C70.22438251 138.05453983 64.75880312 127.20826093 59 116.5 C53.07175191 105.47016347 47.55858642 94.24805339 42.1875 82.9375 C41.81439697 82.15213867 41.44129395 81.36677734 41.05688477 80.55761719 C40.52405884 79.42888184 40.52405884 79.42888184 39.98046875 78.27734375 C39.67004639 77.61984131 39.35962402 76.96233887 39.03979492 76.28491211 C37.64177988 73.21282412 36.32956783 70.10232494 35 67 C35 106.27 35 145.54 35 186 C23.45 186 11.9 186 0 186 C0 124.62 0 63.24 0 0 Z " fill="#F5F5F8" transform="translate(422,281)"/>
<path d="M0 0 C-0.57065034 6.65237589 -2.2727788 12.51232363 -4.4375 18.8125 C-4.75009766 19.75287109 -5.06269531 20.69324219 -5.38476562 21.66210938 C-6.67147641 25.46783535 -7.75827384 28.63741076 -10 32 C-12.81776809 31.54915711 -14.51019442 30.68988182 -16.98828125 29.18359375 C-21.61729002 26.49726084 -26.54859745 24.94420082 -31.625 23.3125 C-32.553125 23.00505859 -33.48125 22.69761719 -34.4375 22.38085938 C-45.5600764 18.73972942 -56.82995282 16.67766145 -67.90234375 21.71875 C-71.7022983 24.03976507 -74.00574683 27.01149366 -76 31 C-76.975374 39.02593459 -75.76008473 45.40105613 -71 52 C-62.72322967 60.54437953 -49.60556017 64.92960374 -38.61328125 68.8515625 C-23.57100232 74.42277692 -8.70971623 84.58618271 -1 99 C5.07201765 112.54059937 5.6268579 127.68254667 2 142 C-1.75967064 151.58599254 -7.35552764 160.08357262 -15 167 C-15.48082031 167.47050781 -15.96164062 167.94101562 -16.45703125 168.42578125 C-21.10320748 172.48463046 -26.23259103 174.38025673 -32 176.3125 C-33.13924927 176.69426392 -33.13924927 176.69426392 -34.30151367 177.08374023 C-58.50423522 184.75930369 -86.93210583 178.83375672 -109.26123047 167.90673828 C-113.07049851 165.92027078 -116.55258914 163.54767306 -120 161 C-118.04893156 153.79858991 -115.45248078 147.13572418 -112.3125 140.375 C-111.68891602 139.01181641 -111.68891602 139.01181641 -111.05273438 137.62109375 C-110.04090056 135.41134175 -109.023294 133.20446214 -108 131 C-103.54542024 131 -102.62977211 131.94536875 -99.23046875 134.50390625 C-85.2397528 143.88822186 -67.70302993 148.23809521 -51 147 C-44.16085944 145.54754038 -39.0754736 142.04402795 -35.125 136.25 C-33.65025447 131.98962404 -33.60515116 128.45723593 -34 124 C-34.04640625 123.31550781 -34.0928125 122.63101563 -34.140625 121.92578125 C-34.98841376 116.24782756 -38.1090174 113.41613574 -42.44921875 109.87890625 C-51.10094734 103.50604032 -60.36992954 99.560739 -70.34765625 95.70703125 C-88.187725 88.52675555 -102.0751807 78.36721594 -111 61 C-116.74875374 46.89639083 -115.18340244 30.01009094 -110 16 C-108.52113837 12.85794272 -106.91507787 9.89616284 -105 7 C-104.34 7 -103.68 7 -103 7 C-102.7628125 6.43152344 -102.525625 5.86304688 -102.28125 5.27734375 C-96.86560472 -4.34863551 -85.68841077 -9.82884934 -75.5 -12.8125 C-50.31760379 -18.04016232 -21.98619564 -13.28515141 0 0 Z " fill="#F3F5F8" transform="translate(399,291)"/>
<path d="M0 0 C3.21108645 1.94308888 6.08957369 3.95337439 8.57421875 6.79296875 C8.57421875 7.45296875 8.57421875 8.11296875 8.57421875 8.79296875 C9.56421875 9.12296875 10.55421875 9.45296875 11.57421875 9.79296875 C18.77671913 18.69532931 18.90094189 29.51694607 17.92871094 40.43505859 C17.1325302 45.73086682 14.84341461 49.65398683 11.57421875 53.79296875 C11.0946875 54.46328125 10.61515625 55.13359375 10.12109375 55.82421875 C4.79306718 62.73308837 -1.89514277 66.25517138 -10.42578125 67.79296875 C-22.86183507 69.05895623 -32.90878925 67.91876614 -43.23828125 60.54296875 C-50.15648115 54.79610429 -53.85745432 47.61936683 -55.42578125 38.79296875 C-56.42100386 26.93209655 -55.24111375 17.1041187 -47.4375 7.828125 C-34.69252367 -5.06533649 -16.30878139 -8.11499751 0 0 Z " fill="#909195" transform="translate(418.42578125,647.20703125)"/>
<path d="M0 0 C35 0 35 0 48 5 C48 5.66 48 6.32 48 7 C48.99 7.33 49.98 7.66 51 8 C52.1328125 9.70703125 52.1328125 9.70703125 53.125 11.8125 C53.45757813 12.49957031 53.79015625 13.18664062 54.1328125 13.89453125 C56.68773993 20.09771091 57.32072073 26.6450148 54.8359375 32.95703125 C52.28480192 37.84343709 49.88995588 42.14752574 45 45 C44.34 45 43.68 45 43 45 C44.26992169 47.70876409 45.54090757 50.41702033 46.8125 53.125 C47.16892578 53.88554688 47.52535156 54.64609375 47.89257812 55.4296875 C49.47149486 58.79031762 51.06482245 62.12619537 52.76171875 65.4296875 C54 68 54 68 54 70 C48.39 70 42.78 70 37 70 C36.51789063 68.81921875 36.03578125 67.6384375 35.5390625 66.421875 C34.90112227 64.86455031 34.26309697 63.30726047 33.625 61.75 C33.30789063 60.97269531 32.99078125 60.19539062 32.6640625 59.39453125 C32.3546875 58.64042969 32.0453125 57.88632812 31.7265625 57.109375 C31.44377441 56.41811523 31.16098633 55.72685547 30.86962891 55.01464844 C30.58265137 54.34981445 30.29567383 53.68498047 30 53 C29.54560547 51.90171875 29.54560547 51.90171875 29.08203125 50.78125 C28.72496094 50.1934375 28.36789062 49.605625 28 49 C24.89069059 48.29327794 24.89069059 48.29327794 21.375 48.25 C18.219375 48.12625 18.219375 48.12625 15 48 C15 55.26 15 62.52 15 70 C10.05 70 5.1 70 0 70 C0 46.9 0 23.8 0 0 Z " fill="#8F9095" transform="translate(461,644)"/>
<path d="M0 0 C42.60294118 0 42.60294118 0 50.69921875 7.59375 C55.80302839 13.78018592 55.95688876 20.32989781 55.51953125 28.01953125 C55.0166431 32.99176558 53.509241 36.41629234 50 40 C49.113125 40.928125 48.22625 41.85625 47.3125 42.8125 C37.28207517 49.43636545 26.59816248 48.2450316 15 48 C15 55.26 15 62.52 15 70 C10.05 70 5.1 70 0 70 C0 46.9 0 23.8 0 0 Z " fill="#8F9095" transform="translate(542,644)"/>
<path d="M0 0 C-0.28427417 1.58467728 -0.57774818 3.1677057 -0.875 4.75 C-1.03742188 5.63171875 -1.19984375 6.5134375 -1.3671875 7.421875 C-1.96796264 9.86947744 -2.77997117 11.80599857 -4 14 C-6.88514487 13.06427734 -9.73195882 12.11209747 -12.53125 10.94140625 C-18.85563152 8.3743469 -23.33514086 7.46102343 -30 9 C-30.77085937 9.17402344 -31.54171875 9.34804688 -32.3359375 9.52734375 C-34.23271217 9.98323521 -36.11794603 10.48671255 -38 11 C-38 11.66 -38 12.32 -38 13 C-39.66666667 14.66666667 -41.33333333 16.33333333 -43 18 C-46.432612 23.26097921 -45.68920305 30.00460259 -45 36 C-43.92890374 38.50793271 -42.76786213 40.40773173 -41.09375 42.546875 C-40 44 -40 44 -40 46 C-32.84762983 49.85127625 -26.07654809 51.05655472 -18 50 C-15.23195295 48.86674699 -12.78872891 47.57874952 -10.25390625 45.99609375 C-7.34823308 44.71195743 -5.95270796 44.88724394 -3 46 C-1.6015625 47.70703125 -1.6015625 47.70703125 -0.625 49.8125 C-0.28726563 50.49957031 0.05046875 51.18664062 0.3984375 51.89453125 C1.12824464 54.44885623 1.11966963 55.58726057 0 58 C-10.26438602 65.37243599 -22.85014155 65.94403542 -35 65 C-44.67140028 63.06051327 -52.48795194 56.03153136 -58 48.0625 C-63.11882153 38.91011946 -63.20750127 27.30499064 -60.875 17.3125 C-57.93183957 7.70273896 -51.44608208 1.42550712 -42.69921875 -3.22265625 C-28.50297757 -9.8793811 -13.41836468 -7.48331877 0 0 Z " fill="#8F9095" transform="translate(342,650)"/>
<path d="M0 0 C5.75658481 4.26059083 9.19457786 8.66231961 10.5625 15.875 C11.37768716 23.24079826 9.4049385 28.76779903 4.8125 34.625 C-0.14528903 39.99292243 -4.76545343 41.05985665 -11.875 41.4375 C-17.33288129 41.28711062 -20.68967651 40.4334532 -24.78515625 36.796875 C-29.90163423 30.84579423 -32.89246338 24.21416433 -32.77734375 16.34765625 C-31.82216455 9.39790412 -27.41349338 4.31693445 -22.18359375 -0.03125 C-16.0590035 -3.86768237 -6.08148984 -3.61414254 0 0 Z " fill="#F3F4F6" transform="translate(410.4375,660.125)"/>
<path d="M0 0 C2.80824474 3.35312804 4.40542988 6.9998179 6.0625 11 C8.78156444 17.37499904 11.70581941 23.61725709 14.8125 29.8125 C15.22951172 30.64410645 15.64652344 31.47571289 16.07617188 32.33251953 C18.27356959 36.67965451 20.52092753 40.99526054 22.828125 45.28515625 C23.28598389 46.13940186 23.74384277 46.99364746 24.21557617 47.8737793 C25.09033071 49.49818754 25.97288295 51.11842953 26.86450195 52.73364258 C29.08129792 56.84167215 30.57167519 60.26588369 31 65 C29.81857422 65.34611328 29.81857422 65.34611328 28.61328125 65.69921875 C21.48661219 67.83300251 14.57336665 70.24895143 7.6796875 73.046875 C5 74 5 74 2 74 C1.9845388 72.99308105 1.9845388 72.99308105 1.96876526 71.96582031 C1.86029606 64.95742851 1.74573287 57.94915484 1.62768555 50.94091797 C1.58446584 48.32798747 1.54278201 45.71503108 1.50268555 43.10205078 C1.44466798 39.33878796 1.38106509 35.57565387 1.31640625 31.8125 C1.29969376 30.65073242 1.28298126 29.48896484 1.26576233 28.29199219 C1.15976676 22.44337041 0.82849818 16.78950536 0 11 C-0.0612491 9.00082953 -0.0874994 6.99995226 -0.0625 5 C-0.05347656 4.05125 -0.04445313 3.1025 -0.03515625 2.125 C-0.02355469 1.42375 -0.01195312 0.7225 0 0 Z " fill="#5189C0" transform="translate(456,346)"/>
<path d="M0 0 C0.33 0 0.66 0 1 0 C0.67 16.83 0.34 33.66 0 51 C-18 55.5 -18 55.5 -25 56 C-24.28911991 52.81584958 -23.2264695 49.89608297 -22 46.875 C-21.649375 46.00617188 -21.29875 45.13734375 -20.9375 44.2421875 C-20.33781649 42.80794445 -19.69522276 41.39044553 -19 40 C-18.34 40 -17.68 40 -17 40 C-16.84724609 39.40719238 -16.69449219 38.81438477 -16.53710938 38.20361328 C-14.62792944 31.29695318 -11.8129477 25.21090263 -8.5 18.875 C-5.28395964 12.67324579 -2.29965029 6.6037255 0 0 Z " fill="#5488B9" transform="translate(551,344)"/>
<path d="M0 0 C2.84625 -0.0825 5.6925 -0.165 8.625 -0.25 C9.51010254 -0.28641602 10.39520508 -0.32283203 11.30712891 -0.36035156 C16.86179475 -0.43786434 19.70467861 0.44992364 24 4 C25.54983261 5.54983261 25.28132961 7.03668378 25.375 9.1875 C25.42398437 9.94417969 25.47296875 10.70085938 25.5234375 11.48046875 C24.73968366 15.25301522 23.15282322 17.84686318 20 20 C16.52360295 20.72431126 13.21883639 20.56816225 9.6875 20.375 C4.8921875 20.189375 4.8921875 20.189375 0 20 C0 13.4 0 6.8 0 0 Z " fill="#F1F2F5" transform="translate(476,658)"/>
<path d="M0 0 C2.495625 -0.061875 4.99125 -0.12375 7.5625 -0.1875 C8.33408447 -0.21481201 9.10566895 -0.24212402 9.90063477 -0.27026367 C15.00102098 -0.33071173 18.49566986 0.56323124 23 3 C25.46722108 6.70083161 25.55504968 9.70703767 25 14 C23.64086349 16.71827303 22.6030959 17.68017642 19.9375 19.09375 C15.96407603 20.31959356 12.31464892 20.21424846 8.1875 20.125 C4.1346875 20.063125 4.1346875 20.063125 0 20 C0 13.4 0 6.8 0 0 Z " fill="#F2F3F6" transform="translate(557,658)"/>
<path d="M0 0 C12.21 0 24.42 0 37 0 C37 46.86 37 93.72 37 142 C36.67 142 36.34 142 36 142 C34.96332082 129.54712269 34.91257143 117.16826254 34.98168945 104.67944336 C35.10700784 80.78039153 34.88300919 56.89545109 34.5 33 C34.48797546 32.24569576 34.47595093 31.49139153 34.46356201 30.71422958 C34.31602423 21.4760246 34.15927614 12.23801636 34 3 C23.44 3 12.88 3 2 3 C1.01 5.31 0.02 7.62 -1 10 C-3.1875 12.4375 -3.1875 12.4375 -5 14 C-5.33 12.68 -5.66 11.36 -6 10 C-4.02 6.7 -2.04 3.4 0 0 Z " fill="#E8FAFE" transform="translate(550,281)"/>
<path d="M0 0 C1.32 0.33 2.64 0.66 4 1 C4.12595871 6.82209146 3.91827164 12.56632629 3.5 18.375 C3.12178433 23.94864131 2.91995331 29.49824067 2.9375 35.0859375 C2.93882935 35.91188416 2.94015869 36.73783081 2.94152832 37.58880615 C2.99438806 52.92783167 3.25133453 68.26655542 3.46356201 83.60400391 C3.53572262 88.84404848 3.60584009 94.08412077 3.67631531 99.32418823 C3.78267772 107.21614734 3.89157306 115.10806777 4 123 C14.56 123 25.12 123 36 123 C36 112.44 36 101.88 36 91 C36.33 91 36.66 91 37 91 C37 102.22 37 113.44 37 125 C25.12 125 13.24 125 1 125 C0.97735035 110.88230101 0.95902793 96.76461422 0.94818783 82.64690113 C0.94298346 76.09052159 0.93593051 69.53415519 0.92456055 62.9777832 C0.9136444 56.6429958 0.90770475 50.308221 0.90512276 43.97342491 C0.90328418 41.56429534 0.89969405 39.15516641 0.89426994 36.74604225 C0.8418945 12.50534889 0.8418945 12.50534889 2 2 C1.34 2 0.68 2 0 2 C0 1.34 0 0.68 0 0 Z " fill="#E9FAFE" transform="translate(550,342)"/>
<path d="M0 0 C11.55 0 23.1 0 35 0 C35.66 1.65 36.32 3.3 37 5 C35.453125 4.52433594 35.453125 4.52433594 33.875 4.0390625 C27.67358196 2.48870799 21.35971231 2.53617539 15 2.375 C13.74832031 2.33632813 12.49664062 2.29765625 11.20703125 2.2578125 C8.1381628 2.16410659 5.06929147 2.0783893 2 2 C2.00138269 3.13941496 2.00138269 3.13941496 2.00279331 4.30184841 C2.02490187 22.80631411 2.04143755 41.31077716 2.05181217 59.81525326 C2.05696293 68.76396599 2.06398235 77.71266989 2.07543945 86.66137695 C2.0854236 94.46334911 2.0918623 102.26531486 2.09408849 110.06729323 C2.09538927 114.19628254 2.09843496 118.32525355 2.10573006 122.45423698 C2.11254917 126.34557003 2.11460503 130.23687734 2.11310768 134.12821579 C2.11338137 135.55155006 2.11535139 136.97488526 2.11920547 138.39821434 C2.13795562 145.68394737 1.99403674 152.7776552 1 160 C0.67 160 0.34 160 0 160 C0 107.2 0 54.4 0 0 Z " fill="#E9F8FE" transform="translate(422,281)"/>
<path d="M0 0 C0.66 0 1.32 0 2 0 C2.20004021 10.63939937 2.38377968 21.2789425 2.54658794 31.9189806 C2.62269763 36.85933586 2.70446559 41.79946354 2.79907227 46.73950195 C2.89012973 51.50500334 2.96644483 56.27053178 3.03244972 61.03644371 C3.06026719 62.85663374 3.09343801 64.67674993 3.13199425 66.49674416 C3.18500663 69.04186957 3.21914724 71.58659029 3.2487793 74.13208008 C3.26891586 74.88805481 3.28905243 75.64402954 3.30979919 76.4229126 C3.32279968 78.52619934 3.32279968 78.52619934 3 82 C2.01 82.99 1.02 83.98 0 85 C0 56.95 0 28.9 0 0 Z " fill="#7CA2BF" transform="translate(587,384)"/>
<path d="M0 0 C2.80801034 3.35284817 4.4066554 6.99944776 6.0625 11 C9.29072645 18.61796913 12.92732764 25.99150669 16.71118164 33.34765625 C17.12360107 34.15589844 17.53602051 34.96414063 17.9609375 35.796875 C18.33009277 36.51198242 18.69924805 37.22708984 19.07958984 37.96386719 C19.98408528 39.96479344 20.5404974 41.85726047 21 44 C20.34 44 19.68 44 19 44 C18.65219482 43.25838623 18.30438965 42.51677246 17.94604492 41.75268555 C16.36651758 38.39444675 14.77714037 35.04096278 13.1875 31.6875 C12.64029297 30.52025391 12.09308594 29.35300781 11.52929688 28.15039062 C10.99755859 27.03212891 10.46582031 25.91386719 9.91796875 24.76171875 C9.43094482 23.73006592 8.9439209 22.69841309 8.44213867 21.63549805 C7.15288965 19.27940474 6.01309072 17.74154541 4 16 C2.70336078 18.59327843 2.87996431 20.46408068 2.88647461 23.36767578 C2.88655014 24.48868683 2.88662567 25.60969788 2.88670349 26.76467896 C2.89186478 27.97928802 2.89702606 29.19389709 2.90234375 30.4453125 C2.9037587 31.68546112 2.90517365 32.92560974 2.90663147 34.20333862 C2.91128904 37.50118133 2.92027561 40.79897546 2.93133545 44.09680176 C2.94156269 47.46166387 2.94613191 50.82653308 2.95117188 54.19140625 C2.96221731 60.79428993 2.97896753 67.39714099 3 74 C2.67 74 2.34 74 2 74 C1.9845388 72.99308105 1.9845388 72.99308105 1.96876526 71.96582031 C1.86029606 64.95742851 1.74573287 57.94915484 1.62768555 50.94091797 C1.58446584 48.32798747 1.54278201 45.71503108 1.50268555 43.10205078 C1.44466798 39.33878796 1.38106509 35.57565387 1.31640625 31.8125 C1.29969376 30.65073242 1.28298126 29.48896484 1.26576233 28.29199219 C1.15976676 22.44337041 0.82849818 16.78950536 0 11 C-0.0612491 9.00082953 -0.0874994 6.99995226 -0.0625 5 C-0.05347656 4.05125 -0.04445313 3.1025 -0.03515625 2.125 C-0.02355469 1.42375 -0.01195312 0.7225 0 0 Z " fill="#507DA6" transform="translate(456,346)"/>
<path d="M0 0 C3.99538457 2.77939796 5.66883497 4.09682266 7.375 8.75 C7.62671521 10.15960515 7.83373356 11.57778247 8 13 C8.09410156 13.73734375 8.18820312 14.4746875 8.28515625 15.234375 C8.63121926 20.38095303 7.65626746 23.91068934 4.6953125 28.140625 C-0.02767333 33.32067397 -5.70049411 36.79116686 -12.734375 37.1328125 C-18.56754176 37.11770067 -24.25681208 37.08362036 -30 36 C-30.33 35.34 -30.66 34.68 -31 34 C-29.74445313 34.03480469 -28.48890625 34.06960938 -27.1953125 34.10546875 C-12.24615784 34.71380923 -12.24615784 34.71380923 1 28.6875 C3.11990588 25.83887647 4.07086193 23.40683959 5 20 C5.495 19.505 5.495 19.505 6 19 C6.18795365 12.86465582 4.58548662 8.57454923 1.05859375 3.62890625 C0 2 0 2 0 0 Z " fill="#5680A8" transform="translate(358,402)"/>
<path d="M0 0 C0.33 0 0.66 0 1 0 C1 15.51 1 31.02 1 47 C-10.55 47 -22.1 47 -34 47 C-33.67 46.01 -33.34 45.02 -33 44 C-33 44.66 -33 45.32 -33 46 C-28.97893351 45.86019545 -24.9582139 45.71207681 -20.9375 45.5625 C-19.80376953 45.52318359 -18.67003906 45.48386719 -17.50195312 45.44335938 C-16.39658203 45.40146484 -15.29121094 45.35957031 -14.15234375 45.31640625 C-12.6362854 45.26141968 -12.6362854 45.26141968 -11.08959961 45.20532227 C-7.70994114 44.98072386 -4.35307099 44.47901014 -1 44 C-0.67 29.48 -0.34 14.96 0 0 Z " fill="#EBFBFE" transform="translate(456,420)"/>
<path d="M0 0 C-2.6818323 1.43223976 -5.17106 2.4064748 -8.125 3.11328125 C-9.30074585 3.40380371 -9.30074585 3.40380371 -10.50024414 3.70019531 C-11.32516357 3.90225586 -12.15008301 4.10431641 -13 4.3125 C-21.41603174 6.44078418 -29.21389093 9.10694546 -37 13 C-38.99960012 13.039992 -41.00047242 13.04346799 -43 13 C-37.10583991 7.10583991 -25.56161723 5.13114134 -17.6875 2.6875 C-16.85234863 2.42098633 -16.01719727 2.15447266 -15.15673828 1.87988281 C-9.91066782 0.29344942 -5.4793163 -0.27112842 0 0 Z " fill="#5882AC" transform="translate(392,169)"/>
<path d="M0 0 C3.86165999 1.46409219 7.46291219 3.2235047 11.11328125 5.15234375 C12.8622168 6.06983398 12.8622168 6.06983398 14.64648438 7.00585938 C16.47710793 7.96948709 18.30693991 8.934558 20.13549805 9.90209961 C26.63049322 13.33422872 33.02137934 16.65067553 40 19 C40 19.33 40 19.66 40 20 C33.25315152 19.5502101 27.99974489 16.99987244 22 14 C21.23880859 13.62069336 20.47761719 13.24138672 19.69335938 12.85058594 C17.12132971 11.56058655 14.55948924 10.25219057 12 8.9375 C10.74364746 8.3024353 10.74364746 8.3024353 9.46191406 7.65454102 C8.67010742 7.24131592 7.87830078 6.82809082 7.0625 6.40234375 C6.35222656 6.03616943 5.64195312 5.66999512 4.91015625 5.29272461 C2.71728742 3.80867036 1.4710166 2.18375642 0 0 Z " fill="#88ABCA" transform="translate(319,567)"/>
<path d="M0 0 C0.33 0 0.66 0 1 0 C1.20822166 3.74798992 0.69097712 5.71198893 -1 9 C-2.83966863 15.20888162 -3.39984203 21.04547145 -3.625 27.5 C-3.66367187 28.4178125 -3.70234375 29.335625 -3.7421875 30.28125 C-3.83549564 32.52064528 -3.92128185 34.76005254 -4 37 C-4.66 36.67 -5.32 36.34 -6 36 C-6.4995374 23.88621813 -7.01820059 10.52730089 0 0 Z " fill="#DBEEF8" transform="translate(291,304)"/>
<path d="M0 0 C-0.99 0.33 -1.98 0.66 -3 1 C-3 1.66 -3 2.32 -3 3 C-4.46875 4.41015625 -4.46875 4.41015625 -6.5 6.0625 C-11.43930618 10.25342646 -17.06659426 15.13318853 -20 21 C-20.99 20.67 -21.98 20.34 -23 20 C-21.96905133 17.42262834 -21.4891374 16.23715753 -18.9375 15 C-18.298125 14.67 -17.65875 14.34 -17 14 C-16.855625 13.38125 -16.71125 12.7625 -16.5625 12.125 C-15.72664423 8.96732263 -13.54697398 7.91023049 -11 6 C-10.67 5.34 -10.34 4.68 -10 4 C-9.34 4 -8.68 4 -8 4 C-8 3.34 -8 2.68 -8 2 C-3.61016949 -1.20338983 -3.61016949 -1.20338983 0 0 Z " fill="#E3F2FB" transform="translate(291,219)"/>
<path d="M0 0 C0.66 0 1.32 0 2 0 C1.05749371 3.04502033 0.09663164 5.82354222 -1.4375 8.625 C-7.01238449 20.66675049 -6.3377 33.02539277 -6 46 C-8.17003815 42.74494277 -8.25601393 41.79453904 -8.265625 38.02734375 C-8.26820313 37.04443359 -8.27078125 36.06152344 -8.2734375 35.04882812 C-8.26183594 33.5087207 -8.26183594 33.5087207 -8.25 31.9375 C-8.25773437 30.93783203 -8.26546875 29.93816406 -8.2734375 28.90820312 C-8.23094797 12.56035555 -8.23094797 12.56035555 -3 6 C-1.96958573 4.01549844 -0.96314063 2.01800895 0 0 Z " fill="#527CA4" transform="translate(292,298)"/>
<path d="M0 0 C1.52377556 3.90349913 0.40809568 6.28484209 -1.125 10.0625 C-1.59292969 11.21621094 -2.06085937 12.36992187 -2.54296875 13.55859375 C-6.25177835 22.3185435 -10.33205844 30.70678423 -15 39 C-16 36 -16 36 -14.55859375 33.0234375 C-13.85734189 31.80395002 -13.1498663 30.58802849 -12.4375 29.375 C-8.48136639 22.35299337 -5.74568603 15.22019535 -3.2265625 7.58203125 C-2.30296855 4.88478394 -1.3729819 2.48291586 0 0 Z " fill="#81A7C6" transform="translate(648,450)"/>
<path d="M0 0 C13.35312462 0.90431824 13.35312462 0.90431824 18.875 1.5 C25.89694863 2.24225296 32.95249159 2.58904107 40 3 C39.67 3.66 39.34 4.32 39 5 C25.63488401 5.31243128 13.04202689 4.14807546 0 1 C0 0.67 0 0.34 0 0 Z " fill="#DFF1FB" transform="translate(311,466)"/>
<path d="M0 0 C2.646491 3.91220408 2.26035795 8.09460178 2.1875 12.625 C2.18105469 13.45298096 2.17460937 14.28096191 2.16796875 15.1340332 C2.06339091 23.77069195 1.57647768 32.38371757 1 41 C0.67 41 0.34 41 0 41 C-0.33 30.44 -0.66 19.88 -1 9 C-1.66 9 -2.32 9 -3 9 C-2.44271087 5.65626525 -1.64826111 2.96687001 0 0 Z " fill="#E9F7FC" transform="translate(455,342)"/>
<path d="M0 0 C1.99585476 2.99378214 2.58082399 4.86017018 3.375 8.3125 C4.48732214 13.01847828 5.77841892 17.62442995 7.1875 22.25 C8.69191518 27.40962926 9.42773611 31.65329863 9 37 C8.34 36.67 7.68 36.34 7 36 C6.34570312 33.90209961 6.34570312 33.90209961 5.78125 31.15234375 C5.57113281 30.15396484 5.36101563 29.15558594 5.14453125 28.12695312 C4.93183594 27.07443359 4.71914063 26.02191406 4.5 24.9375 C4.07404493 22.88388024 3.64698141 20.83049004 3.21875 18.77734375 C3.01491699 17.7910498 2.81108398 16.80475586 2.60107422 15.78857422 C2.06949254 13.32239796 1.48265824 10.8836182 0.8515625 8.44140625 C0.10988991 5.44409638 -0.19132633 3.06122131 0 0 Z " fill="#E2F4FC" transform="translate(651,315)"/>
<path d="M0 0 C4.18927627 3.57433663 6.294918 7.92780311 8.75 12.75 C9.16121094 13.54277344 9.57242187 14.33554687 9.99609375 15.15234375 C11.00418234 17.09818916 12.00519928 19.04733738 13 21 C13.66 20.34 14.32 19.68 15 19 C16.125 21.75 16.125 21.75 17 25 C16.0546875 27.203125 16.0546875 27.203125 15 29 C11.24786151 23.1965578 7.89452988 17.24448813 4.6875 11.125 C4.23310547 10.27164062 3.77871094 9.41828125 3.31054688 8.5390625 C2.88193359 7.724375 2.45332031 6.9096875 2.01171875 6.0703125 C1.62459717 5.33570801 1.23747559 4.60110352 0.83862305 3.84423828 C0 2 0 2 0 0 Z " fill="#5380AC" transform="translate(462,289)"/>
<path d="M0 0 C0.33 0 0.66 0 1 0 C1.08226668 3.04386724 0.97608217 5.07175348 0 8 C-0.1546875 8.928125 -0.1546875 8.928125 -0.3125 9.875 C-1.2694204 12.83275396 -2.91592262 14.72646104 -5 17 C-5.66 17 -6.32 17 -7 17 C-7.66 18.32 -8.32 19.64 -9 21 C-10 18 -10 18 -9.19555664 16.00708008 C-8.55928345 14.89949341 -8.55928345 14.89949341 -7.91015625 13.76953125 C-7.45576172 12.96708984 -7.00136719 12.16464844 -6.53320312 11.33789062 C-6.04787109 10.50451172 -5.56253906 9.67113281 -5.0625 8.8125 C-4.58103516 7.96751953 -4.09957031 7.12253906 -3.60351562 6.25195312 C-2.4112945 4.16261511 -1.20990182 2.07913325 0 0 Z " fill="#E0EEF7" transform="translate(540,299)"/>
<path d="M0 0 C0.66 0 1.32 0 2 0 C-2.21016605 10.87954123 -8.14069651 20.94698183 -14 31 C-15 28 -15 28 -13.78515625 25.08203125 C-13.21667969 24.00308594 -12.64820313 22.92414063 -12.0625 21.8125 C-11.49660156 20.72582031 -10.93070312 19.63914062 -10.34765625 18.51953125 C-9.90292969 17.68808594 -9.45820313 16.85664063 -9 16 C-8.34 16 -7.68 16 -7 16 C-7 14.68 -7 13.36 -7 12 C-6.34 12 -5.68 12 -5 12 C-4.87753906 11.42765625 -4.75507812 10.8553125 -4.62890625 10.265625 C-3.97237132 7.90046809 -3.06276488 5.92793203 -1.9375 3.75 C-1.57527344 3.04359375 -1.21304688 2.3371875 -0.83984375 1.609375 C-0.56269531 1.07828125 -0.28554688 0.5471875 0 0 Z " fill="#5983AB" transform="translate(518,336)"/>
<path d="M0 0 C0.95878077 2.87634231 1.02922013 4.30953619 0.875 7.25 C0.85265761 11.84508532 1.63988184 14.96495928 4 19 C6.19248025 21.20222461 8.51305986 23.13990505 11 25 C10.01 25.33 9.02 25.66 8 26 C2.56281873 22.99524193 -0.09616624 17.71943391 -2 12 C-2.37473891 8.28540055 -2.31793318 4.7162856 -2 1 C-1.34 0.67 -0.68 0.34 0 0 Z " fill="#5985AE" transform="translate(324,321)"/>
<path d="M0 0 C-6.59378092 5.41632004 -14.37660825 4.34765946 -22.52734375 3.84375 C-24.6875 3.625 -24.6875 3.625 -28 3 C-28.33 2.34 -28.66 1.68 -29 1 C-28.44014404 1.00523682 -27.88028809 1.01047363 -27.3034668 1.01586914 C-24.76482263 1.03666691 -22.22619641 1.04966904 -19.6875 1.0625 C-18.80642578 1.07087891 -17.92535156 1.07925781 -17.01757812 1.08789062 C-16.17001953 1.09111328 -15.32246094 1.09433594 -14.44921875 1.09765625 C-13.66893311 1.10289307 -12.88864746 1.10812988 -12.0847168 1.11352539 C-7.94960473 0.88834362 -4.28948437 -0.08093367 0 0 Z " fill="#648DB3" transform="translate(356,435)"/>
<path d="M0 0 C-3.81367041 3.81367041 -9.83021511 3.96904949 -15.05029297 4.02001953 C-17.22541328 3.97242497 -19.39057695 3.87642245 -21.5625 3.75 C-22.61655029 3.69235474 -22.61655029 3.69235474 -23.69189453 3.63354492 C-28.74330644 3.25669356 -28.74330644 3.25669356 -31 1 C-26.77089482 0.83174865 -22.54170681 0.66567565 -18.3125 0.5 C-17.11431641 0.45230469 -15.91613281 0.40460937 -14.68164062 0.35546875 C-13.52470703 0.31035156 -12.36777344 0.26523437 -11.17578125 0.21875 C-9.58117065 0.1559082 -9.58117065 0.1559082 -7.9543457 0.09179688 C-5.30023521 0.00932885 -2.65511397 -0.01717131 0 0 Z " fill="#EAF7FE" transform="translate(461,602)"/>
<path d="M0 0 C0.70189453 0.00451172 1.40378906 0.00902344 2.12695312 0.01367188 C3.85550538 0.02543073 5.58401365 0.04336546 7.3125 0.0625 C7.3125 0.3925 7.3125 0.7225 7.3125 1.0625 C3.25618188 1.63565882 -0.80062407 2.20521706 -4.85791016 2.77148438 C-6.23727983 2.96451192 -7.61651372 3.15851238 -8.99560547 3.35351562 C-10.98108281 3.63408777 -12.96709881 3.91083964 -14.953125 4.1875 C-16.74411621 4.43886719 -16.74411621 4.43886719 -18.57128906 4.6953125 C-21.6875 5.0625 -21.6875 5.0625 -25.6875 5.0625 C-25.6875 4.4025 -25.6875 3.7425 -25.6875 3.0625 C-21.65744571 1.71914857 -17.72188674 1.63348733 -13.5 1.34375 C-0.0557348 -0.00067652 -0.0557348 -0.00067652 0 0 Z " fill="#DDEFFA" transform="translate(412.6875,162.9375)"/>
<path d="M0 0 C0.66 0.33 1.32 0.66 2 1 C-2.86688912 5.69584829 -8.14927792 9.61407955 -13.75 13.375 C-14.39976807 13.81569824 -15.04953613 14.25639648 -15.71899414 14.71044922 C-18.78930162 16.74145979 -21.4006392 18.25005126 -25 19 C-25 18.34 -25 17.68 -25 17 C-23.0234375 15.6328125 -23.0234375 15.6328125 -20.375 14.125 C-17.3454863 12.37423288 -14.3714389 10.62500719 -11.5 8.625 C-9 7 -9 7 -7 7 C-7 6.34 -7 5.68 -7 5 C-5.46875 3.7109375 -5.46875 3.7109375 -3.5 2.375 C-2.8503125 1.92898438 -2.200625 1.48296875 -1.53125 1.0234375 C-1.0259375 0.68570313 -0.520625 0.34796875 0 0 Z " fill="#86A9C8" transform="translate(577,552)"/>
<path d="M0 0 C0.66 0 1.32 0 2 0 C2.4125 0.83660156 2.825 1.67320312 3.25 2.53515625 C3.8275 3.69917969 4.405 4.86320312 5 6.0625 C5.30744141 6.68286133 5.61488281 7.30322266 5.93164062 7.94238281 C7.65572287 11.39572991 9.42660063 14.81401053 11.28125 18.19921875 C11.65121094 18.87654053 12.02117187 19.5538623 12.40234375 20.25170898 C13.12725631 21.57141745 13.85891671 22.88744439 14.59765625 24.19946289 C15.45812973 25.7683507 16.23727795 27.38133431 17 29 C16.67 29.66 16.34 30.32 16 31 C0 6.05882353 0 6.05882353 0 0 Z " fill="#5781A8" transform="translate(484,330)"/>
<path d="M0 0 C3.19624262 1.53837846 6.21605574 3.28866532 9.25 5.125 C10.14203125 5.66382813 11.0340625 6.20265625 11.953125 6.7578125 C12.96632813 7.37269531 12.96632813 7.37269531 14 8 C13.67 8.66 13.34 9.32 13 10 C7.35575827 8.36944128 7.35575827 8.36944128 5.375 6.3125 C4.92125 5.879375 4.4675 5.44625 4 5 C1.8522367 4.99521963 1.8522367 4.99521963 0 6 C-0.33 6.99 -0.66 7.98 -1 9 C-1.99 9.33 -2.98 9.66 -4 10 C-3.52449439 8.51965236 -3.04448784 7.04074979 -2.5625 5.5625 C-2.29566406 4.73878906 -2.02882813 3.91507812 -1.75390625 3.06640625 C-1 1 -1 1 0 0 Z " fill="#DCEFF9" transform="translate(292,421)"/>
<path d="M0 0 C0.75 1.5625 0.75 1.5625 1 4 C-0.13084437 6.50286409 -1.52139516 8.67007722 -3 11 C-3.66 11 -4.32 11 -5 11 C-5.268125 11.598125 -5.53625 12.19625 -5.8125 12.8125 C-6.99846146 14.99716585 -8.1807485 16.33235279 -10 18 C-10.66 18.66 -11.32 19.32 -12 20 C-14.125 19.625 -14.125 19.625 -16 19 C-12.25 16 -12.25 16 -10 16 C-9.61521484 15.16855469 -9.61521484 15.16855469 -9.22265625 14.3203125 C-7.82449029 11.66692407 -6.18147518 9.31438073 -4.4375 6.875 C-2.03268334 3.54908252 -2.03268334 3.54908252 0 0 Z " fill="#8FB0D0" transform="translate(397,440)"/>
<path d="M0 0 C5.42610336 0.88689052 9.50171605 3.2144536 14.25 5.875 C15.07757812 6.32230469 15.90515625 6.76960937 16.7578125 7.23046875 C17.54414062 7.66746094 18.33046875 8.10445312 19.140625 8.5546875 C20.21618652 9.14999268 20.21618652 9.14999268 21.31347656 9.75732422 C23 11 23 11 24 14 C23.236875 13.690625 22.47375 13.38125 21.6875 13.0625 C19.81210323 12.32106407 17.91315348 11.63771783 16 11 C16 10.34 16 9.68 16 9 C15.29488281 8.72414062 14.58976563 8.44828125 13.86328125 8.1640625 C10.9340016 6.97316845 8.06246414 5.69124864 5.1875 4.375 C4.21167969 3.92898437 3.23585938 3.48296875 2.23046875 3.0234375 C1.49441406 2.68570313 0.75835938 2.34796875 0 2 C0 1.34 0 0.68 0 0 Z " fill="#5883AD" transform="translate(533,184)"/>
<path d="M0 0 C0.33 0 0.66 0 1 0 C1 1.98 1 3.96 1 6 C1.99 5.67 2.98 5.34 4 5 C3.95875 5.763125 3.9175 6.52625 3.875 7.3125 C3.77919176 10.22718416 3.77919176 10.22718416 6 13 C5.01 13.33 4.02 13.66 3 14 C-0.1875 12.0625 -0.1875 12.0625 -3 10 C-2.01 6.7 -1.02 3.4 0 0 Z " fill="#DDEBF6" transform="translate(282,442)"/>
<path d="M0 0 C0.66 0 1.32 0 2 0 C0.71882993 3.27381995 -0.65271307 6.47069744 -2.1640625 9.64453125 C-2.56367188 10.48564453 -2.96328125 11.32675781 -3.375 12.19335938 C-3.7875 13.05767578 -4.2 13.92199219 -4.625 14.8125 C-5.04523438 15.69615234 -5.46546875 16.57980469 -5.8984375 17.49023438 C-6.93092761 19.66081018 -7.9648212 21.83070552 -9 24 C-9.66 24 -10.32 24 -11 24 C-11.33 23.01 -11.66 22.02 -12 21 C-11.13837624 19.65586693 -10.26152506 18.31983982 -9.32421875 17.02734375 C-6.44081361 12.61292703 -4.29956966 7.7371135 -2 3 C-1.34 3 -0.68 3 0 3 C0 2.01 0 1.02 0 0 Z " fill="#E2F3FB" transform="translate(514,416)"/>
<path d="M0 0 C0.33 0 0.66 0 1 0 C1.35542025 4.265043 0.54332738 5.68523683 -2 9 C-2.88771775 10.69114182 -3.74143764 12.40051165 -4.5625 14.125 C-5.88848118 16.9091474 -6.8116497 18.8116497 -9 21 C-9.99 21 -10.98 21 -12 21 C-10.86533389 18.73066778 -9.56706223 16.60657929 -8.25 14.4375 C-5.38608266 9.68505747 -2.65843224 4.86987145 0 0 Z " fill="#D7E9F5" transform="translate(514,347)"/>
<path d="M0 0 C0.66 0.33 1.32 0.66 2 1 C-4.6379522 5.2848157 -15.12349122 11.23736605 -23.19604492 9.53759766 C-23.7913501 9.36019043 -24.38665527 9.1827832 -25 9 C-23.865625 8.60167969 -22.73125 8.20335937 -21.5625 7.79296875 C-20.04165157 7.25785541 -18.52081909 6.72269673 -17 6.1875 C-16.25621094 5.92646484 -15.51242187 5.66542969 -14.74609375 5.39648438 C-14.00488281 5.13544922 -13.26367188 4.87441406 -12.5 4.60546875 C-11.75621094 4.34427246 -11.01242187 4.08307617 -10.24609375 3.81396484 C-7.99885473 2.99958497 -5.78381553 2.12048093 -3.5625 1.23828125 C-2.386875 0.82964844 -1.21125 0.42101562 0 0 Z " fill="#84A9C7" transform="translate(523,584)"/>
<path d="M0 0 C3.52191627 0.26088269 4.21275268 1.24314592 6.625 4 C7.40875 4.99 8.1925 5.98 9 7 C9.66 7.33 10.32 7.66 11 8 C11 8.99 11 9.98 11 11 C11.99 11.33 12.98 11.66 14 12 C15.1875 14.5625 15.1875 14.5625 16 17 C16.66 17 17.32 17 18 17 C17.67 17.66 17.34 18.32 17 19 C15.87499925 17.87499925 14.75070645 16.74928598 13.62890625 15.62109375 C12.43848357 14.43638053 11.23626481 13.26348705 10.02734375 12.09765625 C6.12151099 8.2940322 2.80780763 4.67967938 0 0 Z " fill="#8AAECB" transform="translate(266,521)"/>
<path d="M0 0 C2.6603647 3.19243764 5.04024194 6.50525034 7.375 9.9375 C10.25946927 14.10534005 13.28767397 17.55930758 17 21 C16.67 21.66 16.34 22.32 16 23 C14.85155955 21.85155955 13.70443386 20.70178538 12.5625 19.546875 C11.47865492 18.47386837 10.37260031 17.42301636 9.25 16.390625 C5.04006016 12.43473326 1.9279311 8.50837458 0 3 C0 2.01 0 1.02 0 0 Z " fill="#5C85AD" transform="translate(288,352)"/>
<path d="M0 0 C2.31 0 4.62 0 7 0 C7 0.66 7 1.32 7 2 C7.71542969 2.10183594 8.43085938 2.20367187 9.16796875 2.30859375 C12.34541039 3.08432778 14.54761835 4.32984083 17.3125 6.0625 C18.19550781 6.61035156 19.07851563 7.15820312 19.98828125 7.72265625 C20.65214844 8.14417969 21.31601562 8.56570313 22 9 C21.34 9.66 20.68 10.32 20 11 C19.2265625 10.52949219 18.453125 10.05898438 17.65625 9.57421875 C11.88076993 6.12179687 6.4004748 3.09246292 0 1 C0 0.67 0 0.34 0 0 Z " fill="#6189AF" transform="translate(358,359)"/>
<path d="M0 0 C0.66 0.99 1.32 1.98 2 3 C1.01 3.66 0.02 4.32 -1 5 C-1.33 5.99 -1.66 6.98 -2 8 C-2.66 8 -3.32 8 -4 8 C-4.2475 8.78375 -4.495 9.5675 -4.75 10.375 C-6.1824048 13.38305008 -7.0309239 13.75490357 -10 15 C-10.33 15.66 -10.66 16.32 -11 17 C-11.66 16.34 -12.32 15.68 -13 15 C-12.04882866 13.8274869 -11.08882991 12.66212985 -10.125 11.5 C-9.59132813 10.8503125 -9.05765625 10.200625 -8.5078125 9.53125 C-7.76144531 8.77328125 -7.76144531 8.77328125 -7 8 C-6.34 8 -5.68 8 -5 8 C-4.731875 7.4225 -4.46375 6.845 -4.1875 6.25 C-2.98280141 3.9674132 -1.59201885 2.0262058 0 0 Z " fill="#DDEDF8" transform="translate(613,518)"/>
<path d="M0 0 C0.66 0.66 1.32 1.32 2 2 C1.23565759 4.54377987 0.46377703 7.08486141 -0.3125 9.625 C-0.52583984 10.33785156 -0.73917969 11.05070312 -0.95898438 11.78515625 C-2.28300055 16.09314919 -3.85536656 20.01261701 -6 24 C-7.32 23.67 -8.64 23.34 -10 23 C-9.01 22.34 -8.02 21.68 -7 21 C-3.53673877 14.49365262 -1.78375266 7.10798409 0 0 Z " fill="#DFF1FA" transform="translate(395,299)"/>
<path d="M0 0 C2.0625 0.4375 2.0625 0.4375 4 1 C3.37669158 3.20881138 2.75127759 5.41702865 2.125 7.625 C1.77695313 8.85476563 1.42890625 10.08453125 1.0703125 11.3515625 C0.11833626 14.59662019 -0.90711218 17.80010322 -2 21 C-2.33 21 -2.66 21 -3 21 C-3.16881261 17.53934159 -2.97410622 14.91099013 -2 11.5625 C-0.96433344 7.87293789 -0.9238428 4.80786021 -1 1 C-0.67 0.67 -0.34 0.34 0 0 Z " fill="#E5F3FB" transform="translate(226,307)"/>
<path d="M0 0 C2 3 2 3 2 5 C2.66 5 3.32 5 4 5 C4.81436587 7.41605225 5.62655397 9.83279998 6.4375 12.25 C6.66759766 12.93191406 6.89769531 13.61382812 7.13476562 14.31640625 C8.20803714 17.52066613 9.26015608 20.70046619 10 24 C7.66596248 21.88139945 6.37786584 20.03519436 5.17578125 17.12890625 C4.86962891 16.38962891 4.56347656 15.65035156 4.24804688 14.88867188 C3.93931641 14.12103516 3.63058594 13.35339844 3.3125 12.5625 C2.99216797 11.79873047 2.67183594 11.03496094 2.34179688 10.24804688 C0.79747795 6.46463015 0 4.19169581 0 0 Z " fill="#5681AA" transform="translate(230,454)"/>
<path d="M0 0 C0.33 0.66 0.66 1.32 1 2 C-1.03814233 2.67736481 -3.08070555 3.34143534 -5.125 4 C-6.83042969 4.556875 -6.83042969 4.556875 -8.5703125 5.125 C-11.87895941 5.96911949 -14.60528016 6.16509276 -18 6 C-17.67 4.68 -17.34 3.36 -17 2 C-16.67 2.66 -16.34 3.32 -16 4 C-14.68 3.01 -13.36 2.02 -12 1 C-12 1.66 -12 2.32 -12 3 C-8.04 2.01 -4.08 1.02 0 0 Z " fill="#5184B6" transform="translate(544,394)"/>
<path d="M0 0 C3.76482152 1.48110561 5.33436705 3.48774681 7.5625 6.8125 C8.43068359 8.09060547 8.43068359 8.09060547 9.31640625 9.39453125 C10.14978516 10.68423828 10.14978516 10.68423828 11 12 C11.58652344 12.87011719 12.17304687 13.74023438 12.77734375 14.63671875 C13.18082031 15.41660156 13.58429687 16.19648438 14 17 C13.67 17.99 13.34 18.98 13 20 C10 15.25 10 15.25 10 13 C9.34 13 8.68 13 8 13 C5 8.61538462 5 8.61538462 5 6 C4.34 6 3.68 6 3 6 C2.01 4.02 1.02 2.04 0 0 Z " fill="#5A85AD" transform="translate(614,250)"/>
<path d="M0 0 C0.99 0 1.98 0 3 0 C2.39314305 3.25824388 1.29605725 5.22328838 -0.75 7.8125 C-3.59835669 11.47958724 -6.31608366 15.21094163 -9 19 C-9.33 17.68 -9.66 16.36 -10 15 C-9.34 15 -8.68 15 -8 15 C-8 14.34 -8 13.68 -8 13 C-7.34 13 -6.68 13 -6 13 C-5.88785156 12.41476562 -5.77570313 11.82953125 -5.66015625 11.2265625 C-4.94197837 8.80430576 -3.97510219 7.36380739 -2.4375 5.375 C-0.43629893 2.96704996 -0.43629893 2.96704996 0 0 Z " fill="#DDF0F9" transform="translate(261,245)"/>
<path d="M0 0 C2.71918696 2.71918696 4.90980918 5.41329331 7.1875 8.5 C7.90292969 9.4590625 8.61835938 10.418125 9.35546875 11.40625 C11 14 11 14 11 17 C7.75700849 14.61042731 5.49097658 12.7952131 4 9 C3.01 9 2.02 9 1 9 C0.67 6.03 0.34 3.06 0 0 Z " fill="#E1F1F9" transform="translate(251,501)"/>
<path d="M0 0 C2.65845673 2.37000248 4.11161791 4.81984154 5.6875 8 C6.12449219 8.86625 6.56148438 9.7325 7.01171875 10.625 C8 13 8 13 8 16 C8.66 16 9.32 16 10 16 C10.33 17.32 10.66 18.64 11 20 C7.3424485 18.78081617 6.57671131 17.15928702 4.78515625 13.85546875 C3.782185 11.48526307 3.69199836 9.54101354 4 7 C3.34 7 2.68 7 2 7 C0 4 0 4 0 0 Z " fill="#8EB2CE" transform="translate(490,416)"/>
<path d="M0 0 C3.52582996 1.37469182 6.95050404 2.89078127 10.375 4.5 C14.54847353 6.41448921 18.54488739 7.91097247 23 9 C23 9.33 23 9.66 23 10 C17.93114453 10.34154616 14.45196802 9.25894435 9.8125 7.25 C8.60207031 6.73953125 7.39164062 6.2290625 6.14453125 5.703125 C3.10847695 4.05875273 1.74518577 2.91921983 0 0 Z " fill="#5B84AB" transform="translate(303,426)"/>
<path d="M0 0 C4.49324849 1.65770333 8.61186146 3.84982162 12.8125 6.125 C13.50537109 6.49753906 14.19824219 6.87007813 14.91210938 7.25390625 C16.60934836 8.16690377 18.30485138 9.08312716 20 10 C20 10.66 20 11.32 20 12 C18.68 12 17.36 12 16 12 C16 11.34 16 10.68 16 10 C15.29875 9.731875 14.5975 9.46375 13.875 9.1875 C8.19606012 6.84185092 4.20210106 4.57287468 0 0 Z " fill="#5581AA" transform="translate(278,452)"/>
<path d="M0 0 C1.33332095 2.6666419 0.67102033 4.16680303 0 7 C-0.66 7 -1.32 7 -2 7 C-2.12375 7.969375 -2.2475 8.93875 -2.375 9.9375 C-2.58125 10.948125 -2.7875 11.95875 -3 13 C-3.99 13.495 -3.99 13.495 -5 14 C-5.92407032 11.45880661 -6.29932296 9.7227176 -5.24609375 7.1796875 C-3.72793752 4.5019064 -2.17979845 2.17979845 0 0 Z " fill="#F0F1F5" transform="translate(302,663)"/>
<path d="M0 0 C1.19234985 2.87689064 1.02291478 3.93988906 -0.109375 6.91015625 C-0.65078125 7.95042969 -1.1921875 8.99070312 -1.75 10.0625 C-2.28109375 11.10535156 -2.8121875 12.14820313 -3.359375 13.22265625 C-4.7508773 15.57827085 -5.95623894 17.22094293 -8 19 C-8 17.35 -8 15.7 -8 14 C-7.34 14 -6.68 14 -6 14 C-5.72736328 13.11248047 -5.72736328 13.11248047 -5.44921875 12.20703125 C-4.04332943 7.787492 -2.62472819 3.87459875 0 0 Z " fill="#E4F4FC" transform="translate(400,429)"/>
<path d="M0 0 C0.99 0 1.98 0 3 0 C3.66 1.65 4.32 3.3 5 5 C5.66 5 6.32 5 7 5 C7.0825 5.61875 7.165 6.2375 7.25 6.875 C8.23825442 9.67505419 9.40359985 9.74113932 12 11 C13.25 13.125 13.25 13.125 14 15 C10.4389927 13.51491624 8.39978977 11.51458829 5.875 8.625 C5.19179688 7.85414063 4.50859375 7.08328125 3.8046875 6.2890625 C2.19148073 4.24287383 1.05067645 2.37214579 0 0 Z " fill="#DEF1FA" transform="translate(292,358)"/>
<path d="M0 0 C3.69476785 2.46317856 5.0905316 5.12422143 7 9.0625 C7.97359154 11.11342822 7.97359154 11.11342822 9.6875 13.0625 C10.120625 13.701875 10.55375 14.34125 11 15 C10.67 15.99 10.34 16.98 10 18 C0 4.1369863 0 4.1369863 0 0 Z " fill="#85AAC9" transform="translate(246,490)"/>
<path d="M0 0 C0.33 0.66 0.66 1.32 1 2 C0.34 2 -0.32 2 -1 2 C-4.14128803 7.60944292 -5.22630163 13.68146331 -6 20 C-6.33 20 -6.66 20 -7 20 C-6.98839844 19.30132812 -6.97679687 18.60265625 -6.96484375 17.8828125 C-6.95582031 16.97273438 -6.94679688 16.06265625 -6.9375 15.125 C-6.92589844 14.22007812 -6.91429687 13.31515625 -6.90234375 12.3828125 C-6.83750743 9.9831415 -6.83750743 9.9831415 -8 8 C-7.04578192 6.85073734 -6.08647955 5.70569459 -5.125 4.5625 C-4.59132813 3.92441406 -4.05765625 3.28632813 -3.5078125 2.62890625 C-2 1 -2 1 0 0 Z " fill="#6093C4" transform="translate(331,312)"/>
<path d="M0 0 C0 5.47993668 -4.47441876 10.00434127 -8 14 C-8.66 14 -9.32 14 -10 14 C-9.34 12.02 -8.68 10.04 -8 8 C-7.34 8 -6.68 8 -6 8 C-5.7525 7.4225 -5.505 6.845 -5.25 6.25 C-3.83316683 3.6997003 -2.12372463 1.98214299 0 0 Z " fill="#E0EFFA" transform="translate(302,290)"/>
<path d="M0 0 C0 3 0 3 -2 6 C-2.28875 6.66 -2.5775 7.32 -2.875 8 C-4.21372264 10.37995135 -5.74832785 11.49888523 -8 13 C-8.77734375 11.296875 -8.77734375 11.296875 -9 9 C-7.12890625 6.640625 -7.12890625 6.640625 -4.5625 4.25 C-3.71816406 3.45078125 -2.87382812 2.6515625 -2.00390625 1.828125 C-1.34261719 1.22484375 -0.68132812 0.6215625 0 0 Z " fill="#648FB8" transform="translate(284,224)"/>
<path d="M0 0 C5.8022175 -0.36263859 9.63999211 0.74315457 15 3 C13.1875 4.0625 13.1875 4.0625 11 5 C10.01 4.67 9.02 4.34 8 4 C6.6069375 3.63508688 5.21090552 3.28137021 3.8125 2.9375 C2.554375 2.628125 1.29625 2.31875 0 2 C0 1.34 0 0.68 0 0 Z " fill="#5282AE" transform="translate(483,168)"/>
<path d="M0 0 C0.66 0.66 1.32 1.32 2 2 C-2.58228917 6.15269956 -7.73448807 9 -14 9 C-14 8.34 -14 7.68 -14 7 C-13.175 6.773125 -12.35 6.54625 -11.5 6.3125 C-7.26863382 4.72573768 -3.74828987 2.49251763 0 0 Z " fill="#E6F5FD" transform="translate(379,458)"/>
<path d="M0 0 C0.66 0 1.32 0 2 0 C2.99862699 7.36487404 3.10331031 14.57313685 3 22 C2.67 22 2.34 22 2 22 C1.66304138 19.27123692 1.33031571 16.54206837 1 13.8125 C0.90460937 13.04357422 0.80921875 12.27464844 0.7109375 11.48242188 C0.24807106 7.63071189 -0.12467468 3.88829149 0 0 Z " fill="#ECFAFE" transform="translate(659,355)"/>
<path d="M0 0 C0.66 0.33 1.32 0.66 2 1 C-2.625 5 -2.625 5 -6 5 C-6 5.66 -6 6.32 -6 7 C-10.455 8.485 -10.455 8.485 -15 10 C-15 9.34 -15 8.68 -15 8 C-14.16855469 7.59007812 -13.33710937 7.18015625 -12.48046875 6.7578125 C-11.39378906 6.21898437 -10.30710937 5.68015625 -9.1875 5.125 C-8.10855469 4.59132813 -7.02960937 4.05765625 -5.91796875 3.5078125 C-2.92161735 2.02778861 -2.92161735 2.02778861 0 0 Z " fill="#89ACC9" transform="translate(547,572)"/>
<path d="M0 0 C0.66 0.33 1.32 0.66 2 1 C-0.09549511 4.9704118 -2.267653 7.48066577 -6 10 C-6.99 10 -7.98 10 -9 10 C-7.61811547 6.78956118 -6.07578097 4.95063635 -3.375 2.75 C-2.74335937 2.22921875 -2.11171875 1.7084375 -1.4609375 1.171875 C-0.73777344 0.59179688 -0.73777344 0.59179688 0 0 Z " fill="#E1EFF9" transform="translate(584,548)"/>
<path d="M0 0 C1.35814777 4.0744433 -0.05254238 6.81468116 -1.4375 10.6875 C-1.68048828 11.38939453 -1.92347656 12.09128906 -2.17382812 12.81445312 C-2.7744944 14.54578532 -3.38619719 16.27328137 -4 18 C-4.33 18 -4.66 18 -5 18 C-4.56699236 11.18012971 -3.09212176 6.08356979 0 0 Z " fill="#5A84AD" transform="translate(396,305)"/>
<path d="M0 0 C2.83490984 1.11678266 5.60833039 2.28163444 8.375 3.5625 C11.98254692 4.99307895 15.1537065 5.60752107 19 6 C16 8 16 8 13.984375 7.8984375 C8.68690525 6.65742186 4.590928 4.93037958 0 2 C0 1.34 0 0.68 0 0 Z " fill="#87888D" transform="translate(384,696)"/>
<path d="M0 0 C4.32046898 1.41680244 7.00461199 3.53763785 10.3125 6.625 C11.19550781 7.44226563 12.07851563 8.25953125 12.98828125 9.1015625 C13.65214844 9.72804688 14.31601562 10.35453125 15 11 C14.01 11.495 14.01 11.495 13 12 C11.20425007 10.56760415 9.41353093 9.1288996 7.625 7.6875 C6.62726563 6.88699219 5.62953125 6.08648438 4.6015625 5.26171875 C2 3 2 3 0 0 Z " fill="#89ADCB" transform="translate(286,542)"/>
<path d="M0 0 C0.66 0 1.32 0 2 0 C3.20005531 2.0978523 4.38502983 4.2020249 5.5625 6.3125 C6.07586914 7.20485352 6.07586914 7.20485352 6.59960938 8.11523438 C7.47766262 9.70282559 8.24586268 11.34993931 9 13 C8.67 13.99 8.34 14.98 8 16 C5.70351643 13.10414095 3.95652443 10.1827969 2.3125 6.875 C1.65701172 5.57175781 1.65701172 5.57175781 0.98828125 4.2421875 C0 2 0 2 0 0 Z " fill="#5D86AD" transform="translate(477,392)"/>
<path d="M0 0 C2.6875 0.875 2.6875 0.875 5 2 C5 2.66 5 3.32 5 4 C6.65 4.33 8.3 4.66 10 5 C10 5.66 10 6.32 10 7 C5.14036821 6.39254603 1.2594482 4.27241033 -3 2 C-2.01 1.34 -1.02 0.68 0 0 Z " fill="#5D89AF" transform="translate(341,349)"/>
<path d="M0 0 C1.51553092 3.97450493 0.49888623 7.20481149 -0.4375 11.25 C-0.72496094 12.51328125 -1.01242188 13.7765625 -1.30859375 15.078125 C-1.53675781 16.04234375 -1.76492187 17.0065625 -2 18 C-2.66 17.34 -3.32 16.68 -4 16 C-3.828125 13.3203125 -3.828125 13.3203125 -3.25 10.125 C-3.06953125 9.07570313 -2.8890625 8.02640625 -2.703125 6.9453125 C-2.07910293 4.3313534 -1.32301595 2.32088392 0 0 Z " fill="#D7E9F7" transform="translate(222,332)"/>
<path d="M0 0 C5.66104589 0.49658297 9.87674471 1.54510684 15 4 C15 4.66 15 5.32 15 6 C15.99 6 16.98 6 18 6 C17.67 6.66 17.34 7.32 17 8 C14.72753814 7.0453859 12.4570528 6.08648542 10.1875 5.125 C9.54490234 4.85558594 8.90230469 4.58617187 8.24023438 4.30859375 C5.28509592 3.05304269 2.68084233 1.78722822 0 0 Z " fill="#D4E9F5" transform="translate(367,313)"/>
<path d="M0 0 C5.50808397 0.59015185 10.64878069 1.56663769 16 3 C16 3.33 16 3.66 16 4 C10.84828377 4.09038099 6.08086796 3.84681133 1 3 C0.67 2.01 0.34 1.02 0 0 Z " fill="#DCEFF9" transform="translate(384,596)"/>
<path d="M0 0 C1.32 0.33 2.64 0.66 4 1 C4.13794954 8.06608191 3.74805717 14.97360585 3 22 C2.67 22 2.34 22 2 22 C2 15.4 2 8.8 2 2 C1.34 2 0.68 2 0 2 C0 1.34 0 0.68 0 0 Z " fill="#E4F1F7" transform="translate(550,342)"/>
<path d="M0 0 C-4.85511756 3.95602172 -8.71925967 5.29212746 -15 5 C-10.80265327 0.80265327 -5.80003952 -0.42439314 0 0 Z " fill="#668CB4" transform="translate(364,177)"/>
<path d="M0 0 C0.33 0 0.66 0 1 0 C1 4.29 1 8.58 1 13 C-2.07167873 9.92832127 -2.8015614 9.1672105 -3 5 C-1.625 2.1875 -1.625 2.1875 0 0 Z " fill="#5C8CB9" transform="translate(549,351)"/>
<path d="M0 0 C1.20272819 2.40545638 1.10071472 3.94996953 1.0625 6.625 C1.05347656 7.44226563 1.04445312 8.25953125 1.03515625 9.1015625 C1.02355469 9.72804688 1.01195312 10.35453125 1 11 C-0.98 10.01 -2.96 9.02 -5 8 C-3.35 5.36 -1.7 2.72 0 0 Z " fill="#5E8DB8" transform="translate(254,260)"/>
<path d="M0 0 C0.66 0.66 1.32 1.32 2 2 C-0.97 4.64 -3.94 7.28 -7 10 C-7.33 9.01 -7.66 8.02 -8 7 C-7.01 6.67 -6.02 6.34 -5 6 C-5 5.34 -5 4.68 -5 4 C-3.37373596 2.61767557 -1.7074998 1.28062485 0 0 Z " fill="#8AAED1" transform="translate(596,535)"/>
<path d="M0 0 C0.33 0 0.66 0 1 0 C1.66 5.28 2.32 10.56 3 16 C2.34 16 1.68 16 1 16 C-0.50156874 12.99686252 -0.09281204 10.20932478 -0.0625 6.875 C-0.05347656 5.59367187 -0.04445312 4.31234375 -0.03515625 2.9921875 C-0.02355469 2.00476563 -0.01195312 1.01734375 0 0 Z " fill="#DCF2FB" transform="translate(218,408)"/>
<path d="M0 0 C5.4389165 -0.21755666 9.87080814 -0.10428384 15 2 C12 4 12 4 9.08203125 3.5390625 C8.00308594 3.23742187 6.92414063 2.93578125 5.8125 2.625 C4.72582031 2.32851563 3.63914062 2.03203125 2.51953125 1.7265625 C1.68808594 1.48679687 0.85664063 1.24703125 0 1 C0 0.67 0 0.34 0 0 Z " fill="#8DB2D4" transform="translate(361,589)"/>
<path d="M0 0 C2 1 2 1 2.8515625 3.28515625 C3.10679687 4.20167969 3.36203125 5.11820312 3.625 6.0625 C3.88539063 6.98160156 4.14578125 7.90070313 4.4140625 8.84765625 C4.60742188 9.55792969 4.80078125 10.26820313 5 11 C4.401875 10.484375 3.80375 9.96875 3.1875 9.4375 C2.465625 8.963125 1.74375 8.48875 1 8 C0.01 8.33 -0.98 8.66 -2 9 C-1.34 6.03 -0.68 3.06 0 0 Z " fill="#D9EBF4" transform="translate(396,389)"/>
<path d="M0 0 C0.99 0 1.98 0 3 0 C3.12117188 0.71027344 3.24234375 1.42054688 3.3671875 2.15234375 C3.53476562 3.07144531 3.70234375 3.99054688 3.875 4.9375 C4.03742188 5.85402344 4.19984375 6.77054687 4.3671875 7.71484375 C4.57601563 8.46894531 4.78484375 9.22304688 5 10 C5.66 10.33 6.32 10.66 7 11 C6.34 11.66 5.68 12.32 5 13 C4.16209211 11.21046815 3.32980604 9.41830305 2.5 7.625 C1.80390625 6.12839844 1.80390625 6.12839844 1.09375 4.6015625 C0 2 0 2 0 0 Z " fill="#DBEDF7" transform="translate(460,353)"/>
<path d="M0 0 C2.475 0.99 2.475 0.99 5 2 C5 2.99 5 3.98 5 5 C5.66 5 6.32 5 7 5 C7.33 6.65 7.66 8.3 8 10 C7.01 10.495 7.01 10.495 6 11 C4.02 7.37 2.04 3.74 0 0 Z " fill="#DBECF7" transform="translate(624,261)"/>
<path d="M0 0 C0.99 0 1.98 0 3 0 C3 4.29 3 8.58 3 13 C1 12 1 12 0 9 C-0.06740865 7.43881572 -0.08514456 5.8749748 -0.0625 4.3125 C-0.05347656 3.50425781 -0.04445313 2.69601562 -0.03515625 1.86328125 C-0.02355469 1.24839844 -0.01195312 0.63351562 0 0 Z " fill="#E9EAED" transform="translate(378,674)"/>
<path d="M0 0 C7 3 7 3 14 6 C14 6.33 14 6.66 14 7 C9.14205748 7.34699589 6.12348096 6.62403334 2 4 C0.625 1.8125 0.625 1.8125 0 0 Z " fill="#DCECF7" transform="translate(332,576)"/>
<path d="M0 0 C0.33 0 0.66 0 1 0 C1.36444983 4.25191465 0.56111503 6.58517997 -2 10 C-2.99 10.33 -3.98 10.66 -5 11 C-3.77782954 6.95743617 -2.37245704 3.50711041 0 0 Z " fill="#8CB1D1" transform="translate(512,424)"/>
<path d="M0 0 C2.31 0.33 4.62 0.66 7 1 C7 1.66 7 2.32 7 3 C8.32 3.66 9.64 4.32 11 5 C8 6 8 6 5.95703125 5.0390625 C5.24933594 4.57242187 4.54164063 4.10578125 3.8125 3.625 C3.09707031 3.16351563 2.38164062 2.70203125 1.64453125 2.2265625 C1.10183594 1.82179688 0.55914062 1.41703125 0 1 C0 0.67 0 0.34 0 0 Z " fill="#D4E6F4" transform="translate(344,392)"/>
<path d="M0 0 C0.33 0.66 0.66 1.32 1 2 C-1.64478179 6.0367722 -4.75175242 7.87587621 -9 10 C-8.62669176 7.27425729 -8.20805399 6.19177915 -6.15234375 4.296875 C-5.42144531 3.78640625 -4.69054687 3.2759375 -3.9375 2.75 C-3.20402344 2.22921875 -2.47054688 1.7084375 -1.71484375 1.171875 C-1.14894531 0.78515625 -0.58304687 0.3984375 0 0 Z " fill="#5A85AF" transform="translate(307,205)"/>
<path d="M0 0 C-0.928125 0.7425 -1.85625 1.485 -2.8125 2.25 C-5.27126958 4.29025561 -7.21647549 6.32471323 -9 9 C-8.8125 5.6875 -8.8125 5.6875 -8 2 C-4.86024789 -0.64400178 -3.96767419 -1.32255806 0 0 Z " fill="#E2F3FB" transform="translate(331,313)"/>
<path d="M0 0 C2 3 2 3 1.875 6.0625 C1.58625 7.031875 1.2975 8.00125 1 9 C-0.98 9.99 -0.98 9.99 -3 11 C-2.01 7.37 -1.02 3.74 0 0 Z " fill="#6B92BC" transform="translate(230,306)"/>
<path d="M0 0 C3.79133356 0.54161908 5.66109564 1.99283725 8 5 C8.25 7.75 8.25 7.75 8 10 C4.71211176 6.88983545 2.16264012 3.98381075 0 0 Z " fill="#DEEDF8" transform="translate(613,246)"/>
<path d="M0 0 C0.33 0.99 0.66 1.98 1 3 C-0.9375 5.6875 -0.9375 5.6875 -3 8 C-3.99 7.67 -4.98 7.34 -6 7 C-4.60667426 3.63279613 -3.0210714 2.0140476 0 0 Z " fill="#DAECF6" transform="translate(274,232)"/>
<path d="M0 0 C0.33 0 0.66 0 1 0 C1 2.97 1 5.94 1 9 C-0.32 9.33 -1.64 9.66 -3 10 C-2.39009109 6.44219804 -1.4216319 3.3171411 0 0 Z " fill="#DBE8F5" transform="translate(645,462)"/>
<path d="M0 0 C0.99 0 1.98 0 3 0 C3 0.66 3 1.32 3 2 C3.61875 2.20625 4.2375 2.4125 4.875 2.625 C7.84653645 4.54775888 8.13024659 6.66594527 9 10 C5.01930733 7.12505529 2.56428003 4.17882671 0 0 Z " fill="#5C88B0" transform="translate(388,377)"/>
<path d="M0 0 C0.33 0 0.66 0 1 0 C1.19392201 5.52677733 0.7479503 9.75614911 -1 15 C-1.33 15 -1.66 15 -2 15 C-2.19392201 9.47322267 -1.7479503 5.24385089 0 0 Z " fill="#507CA4" transform="translate(222,337)"/>
<path d="M0 0 C1.76949095 -0.10815225 3.54087487 -0.18566083 5.3125 -0.25 C6.29863281 -0.29640625 7.28476562 -0.3428125 8.30078125 -0.390625 C11 0 11 0 14 4 C9.38 3.01 4.76 2.02 0 1 C0 0.67 0 0.34 0 0 Z " fill="#D0E7F4" transform="translate(352,309)"/>
<path d="M0 0 C0.66 0 1.32 0 2 0 C0.68938409 4.23429756 -0.94356259 8.07407404 -3 12 C-3.33 12 -3.66 12 -4 12 C-4.37096774 6.43548387 -4.37096774 6.43548387 -2.5625 4.3125 C-1.7890625 3.6628125 -1.7890625 3.6628125 -1 3 C-0.67 2.01 -0.34 1.02 0 0 Z " fill="#DCEDF9" transform="translate(240,280)"/>
<path d="M0 0 C3.3 0 6.6 0 10 0 C9.67 1.32 9.34 2.64 9 4 C6.03 3.67 3.06 3.34 0 3 C0 2.01 0 1.02 0 0 Z " fill="#5E8DBA" transform="translate(357,275)"/>
<path d="M0 0 C2.16874252 0.50603992 3.99967627 0.99983813 6 2 C6 2.66 6 3.32 6 4 C7.32 4.33 8.64 4.66 10 5 C10 5.66 10 6.32 10 7 C6.4124787 5.66749209 3.1635377 4.169283 0 2 C0 1.34 0 0.68 0 0 Z " fill="#D4E8F4" transform="translate(544,187)"/>
<path d="M0 0 C-3.01490557 2.00993705 -5.2149927 2.72623341 -8.6875 3.625 C-9.68136719 3.88539063 -10.67523438 4.14578125 -11.69921875 4.4140625 C-12.45847656 4.60742188 -13.21773438 4.80078125 -14 5 C-14 4.34 -14 3.68 -14 3 C-4.58997722 -1.77676538 -4.58997722 -1.77676538 0 0 Z " fill="#DAEBF8" transform="translate(371,173)"/>
<path d="M0 0 C0.33 0 0.66 0 1 0 C1 2.31 1 4.62 1 7 C0.34 6.01 -0.32 5.02 -1 4 C-4.11610554 3.41407366 -4.11610554 3.41407366 -7.625 3.3125 C-8.81351562 3.24675781 -10.00203125 3.18101562 -11.2265625 3.11328125 C-12.14179688 3.07589844 -13.05703125 3.03851562 -14 3 C-14 2.67 -14 2.34 -14 2 C-13.07316406 1.93941406 -12.14632813 1.87882813 -11.19140625 1.81640625 C-9.39509766 1.69072266 -9.39509766 1.69072266 -7.5625 1.5625 C-5.77005859 1.44068359 -5.77005859 1.44068359 -3.94140625 1.31640625 C-1.11429756 1.32343886 -1.11429756 1.32343886 0 0 Z " fill="#95969A" transform="translate(490,689)"/>
<path d="M0 0 C2.96052484 3.36423277 3.92289822 6.69159287 5 11 C3.046875 10.2890625 3.046875 10.2890625 1 9 C0.390625 6.8359375 0.390625 6.8359375 0.25 4.375 C0.19328125 3.55773437 0.1365625 2.74046875 0.078125 1.8984375 C0.05234375 1.27195312 0.0265625 0.64546875 0 0 Z " fill="#D4E5F3" transform="translate(233,466)"/>
<path d="M0 0 C0.33 0.66 0.66 1.32 1 2 C0.00390625 4.3828125 0.00390625 4.3828125 -1.4375 7.125 C-1.91058594 8.03507812 -2.38367188 8.94515625 -2.87109375 9.8828125 C-3.24363281 10.58148438 -3.61617187 11.28015625 -4 12 C-4.66 12 -5.32 12 -6 12 C-5.36934243 8.78147169 -4.21979305 6.49198931 -2.4375 3.75 C-1.98246094 3.04359375 -1.52742187 2.3371875 -1.05859375 1.609375 C-0.53458984 0.81273437 -0.53458984 0.81273437 0 0 Z " fill="#84A8C8" transform="translate(519,412)"/>
<path d="M0 0 C4.95 1.98 4.95 1.98 10 4 C10 4.66 10 5.32 10 6 C6 4.66666667 2 3.33333333 -2 2 C-1.34 1.34 -0.68 0.68 0 0 Z " fill="#969799" transform="translate(326,657)"/>
<path d="M0 0 C1.1725131 0.95117134 2.33787015 1.91117009 3.5 2.875 C4.47453125 3.67550781 4.47453125 3.67550781 5.46875 4.4921875 C5.9740625 4.98976563 6.479375 5.48734375 7 6 C7 6.66 7 7.32 7 8 C4.5625 7.25 4.5625 7.25 2 6 C1.3125 3.9375 1.3125 3.9375 1 2 C0.34 1.67 -0.32 1.34 -1 1 C-0.67 0.67 -0.34 0.34 0 0 Z " fill="#E4F2FB" transform="translate(273,530)"/>
<path d="M0 0 C0.66 0.66 1.32 1.32 2 2 C-0.64 4.97 -3.28 7.94 -6 11 C-6 7.39426104 -5.18292538 6.58663434 -3 3.8125 C-2.443125 3.09707031 -1.88625 2.38164063 -1.3125 1.64453125 C-0.879375 1.10183594 -0.44625 0.55914063 0 0 Z " fill="#86A8C8" transform="translate(615,513)"/>
<path d="M0 0 C2.99324263 1.0975223 3.84610901 1.67682892 5.25 4.625 C5.4975 5.40875 5.745 6.1925 6 7 C6.66 7 7.32 7 8 7 C7.67 8.32 7.34 9.64 7 11 C5.83051998 9.35616456 4.6644855 7.70987731 3.5 6.0625 C2.8503125 5.14597656 2.200625 4.22945312 1.53125 3.28515625 C0 1 0 1 0 0 Z " fill="#83A9CB" transform="translate(258,510)"/>
<path d="M0 0 C1.1875 1.6875 1.1875 1.6875 2 4 C0.75 6.75 0.75 6.75 -1 9 C-1.66 9 -2.32 9 -3 9 C-2.44271087 5.65626525 -1.64826111 2.96687001 0 0 Z " fill="#DEE3E9" transform="translate(455,342)"/>
<path d="M0 0 C0.99 0.495 0.99 0.495 2 1 C2 1.99 2 2.98 2 4 C2.99 4.33 3.98 4.66 5 5 C5.33 7.31 5.66 9.62 6 12 C0 4.28571429 0 4.28571429 0 0 Z " fill="#E4F4FD" transform="translate(632,272)"/>
<path d="M0 0 C0.33 0.99 0.66 1.98 1 3 C-1.83430453 6.2542015 -3.68607774 7.5206753 -8 8 C-7.67 7.34 -7.34 6.68 -7 6 C-6.34 6 -5.68 6 -5 6 C-5 5.34 -5 4.68 -5 4 C-3.37373596 2.61767557 -1.7074998 1.28062485 0 0 Z " fill="#608BB2" transform="translate(293,216)"/>
<path d="M0 0 C3.2910841 3.60957611 4.54663921 6.12637153 5 11 C0.25316456 5.30379747 0.25316456 5.30379747 -1 2 C-0.67 1.34 -0.34 0.68 0 0 Z " fill="#98989A" transform="translate(338,696)"/>
<path d="M0 0 C0.66 0 1.32 0 2 0 C0.54955729 4.10958767 -1.51110752 7.43258745 -4 11 C-5 8 -5 8 -4.07421875 5.95703125 C-3.61660156 5.24933594 -3.15898438 4.54164063 -2.6875 3.8125 C-2.23761719 3.09707031 -1.78773438 2.38164062 -1.32421875 1.64453125 C-0.88722656 1.10183594 -0.45023438 0.55914062 0 0 Z " fill="#8AADCB" transform="translate(624,500)"/>
<path d="M0 0 C3.65251008 5.47876512 4.2189011 8.43296699 4 15 C3.67 15 3.34 15 3 15 C2.49363393 13.25183142 1.99515381 11.50137737 1.5 9.75 C1.2215625 8.77546875 0.943125 7.8009375 0.65625 6.796875 C0 4 0 4 0 0 Z " fill="#5580A9" transform="translate(225,438)"/>
<path d="M0 0 C0.66 0.66 1.32 1.32 2 2 C1.319375 3.0828125 1.319375 3.0828125 0.625 4.1875 C-0.85494358 6.74894081 -1.97217539 9.23277989 -3 12 C-4.43088528 9.13822943 -3.59991697 7.06624227 -3 4 C-2.34 4 -1.68 4 -1 4 C-0.67 2.68 -0.34 1.36 0 0 Z " fill="#DFEEFA" transform="translate(520,404)"/>
<path d="M0 0 C3.375 4.5 3.375 4.5 4 8 C3.01 7.67 2.02 7.34 1 7 C0.67 8.32 0.34 9.64 0 11 C0 7.37 0 3.74 0 0 Z " fill="#6A8CA9" transform="translate(456,346)"/>
<path d="M0 0 C3.91211733 1.15585285 6.8745041 2.35534962 10 5 C6.53058454 4.54177532 3.32604951 4.10868317 0 3 C0 2.01 0 1.02 0 0 Z " fill="#DAEFF9" transform="translate(336,350)"/>
<path d="M0 0 C0.99 0.33 1.98 0.66 3 1 C2.401875 1.391875 1.80375 1.78375 1.1875 2.1875 C-1.25511232 4.21137878 -2.50112814 6.22708706 -4 9 C-4.66 8.34 -5.32 7.68 -6 7 C-4.02 4.69 -2.04 2.38 0 0 Z " fill="#5A86AF" transform="translate(268,242)"/>
<path d="M0 0 C0.66 1.32 1.32 2.64 2 4 C-3.94 2.515 -3.94 2.515 -10 1 C-8.68 0.67 -7.36 0.34 -6 0 C-5.29875 -0.20625 -4.5975 -0.4125 -3.875 -0.625 C-2 -1 -2 -1 0 0 Z " fill="#D5E5F4" transform="translate(514,172)"/>
<path d="M0 0 C0.70125 0.07863281 1.4025 0.15726563 2.125 0.23828125 C4 0.6875 4 0.6875 6 2.6875 C-2.57142857 2.97321429 -2.57142857 2.97321429 -6 0.6875 C-3.63106495 -0.49696753 -2.5933174 -0.31939755 0 0 Z " fill="#D7ECF7" transform="translate(474,163.3125)"/>
<path d="M0 0 C5.78461538 4.43076923 5.78461538 4.43076923 6.875 7.3125 C6.936875 8.1478125 6.936875 8.1478125 7 9 C2.97449681 7.6581656 2.11714364 5.5772427 0 2 C0 1.34 0 0.68 0 0 Z " fill="#638AAE" transform="translate(358,402)"/>
<path d="M0 0 C0.66 0 1.32 0 2 0 C2 1.32 2 2.64 2 4 C3.32 4.66 4.64 5.32 6 6 C5.34 7.32 4.68 8.64 4 10 C1.81024227 6.71536341 1.00193437 3.79303725 0 0 Z " fill="#DEECF6" transform="translate(638,284)"/>
<path d="M0 0 C0 0.99 0 1.98 0 3 C-2.35438733 4.42944945 -3.48032433 5.08661261 -6.25 4.625 C-6.8275 4.41875 -7.405 4.2125 -8 4 C-2.25 0 -2.25 0 0 0 Z " fill="#DCEFF9" transform="translate(314,283)"/>
<path d="M0 0 C4.05606165 0.46800711 7.46588679 0.87953208 11 3 C10.67 3.99 10.34 4.98 10 6 C9.46375 5.54625 8.9275 5.0925 8.375 4.625 C5.68301698 2.78311688 3.11479612 1.92028067 0 1 C0 0.67 0 0.34 0 0 Z " fill="#5982AB" transform="translate(507,174)"/>
<path d="M0 0 C2.35953094 2.35953094 2.49141413 3.77895617 3 7 C2.01 7 1.02 7 0 7 C-0.66 6.01 -1.32 5.02 -2 4 C-1 1 -1 1 0 0 Z " fill="#E6E7E9" transform="translate(492,699)"/>
<path d="M0 0 C0.33 1.32 0.66 2.64 1 4 C0.34 4 -0.32 4 -1 4 C-1.103125 4.639375 -1.20625 5.27875 -1.3125 5.9375 C-1.539375 6.618125 -1.76625 7.29875 -2 8 C-2.99 8.33 -3.98 8.66 -5 9 C-3.7508258 5.54074837 -2.32472205 2.85306797 0 0 Z " fill="#DDEEF8" transform="translate(629,496)"/>
<path d="M0 0 C0.99 0.33 1.98 0.66 3 1 C4.33106622 1.34227417 5.66400079 1.67751743 7 2 C7 2.66 7 3.32 7 4 C4.69 4 2.38 4 0 4 C0 2.68 0 1.36 0 0 Z " fill="#4F85B5" transform="translate(400,433)"/>
<path d="M0 0 C0.268125 0.556875 0.53625 1.11375 0.8125 1.6875 C2.10122647 4.19712523 3.52926478 6.59334236 5 9 C4.34 9.66 3.68 10.32 3 11 C2.30034557 9.73581754 1.61565237 8.46334598 0.9375 7.1875 C0.55464844 6.47980469 0.17179687 5.77210938 -0.22265625 5.04296875 C-1 3 -1 3 0 0 Z " fill="#DCEEF8" transform="translate(479,389)"/>
<path d="M0 0 C0.99 0.33 1.98 0.66 3 1 C2.34 4.3 1.68 7.6 1 11 C0.67 9.68 0.34 8.36 0 7 C-0.20625 6.319375 -0.4125 5.63875 -0.625 4.9375 C-1 3 -1 3 0 0 Z " fill="#6291C2" transform="translate(396,301)"/>
<path d="M0 0 C-1.28519565 2.86697492 -2.57129254 4.97607712 -5 7 C-5.66 7 -6.32 7 -7 7 C-3.86206897 0 -3.86206897 0 0 0 Z " fill="#5F87AC" transform="translate(303,288)"/>
<path d="M0 0 C3.72433382 1.2125738 7.37802806 2.50859979 11 4 C11 4.33 11 4.66 11 5 C3.49230769 4.50769231 3.49230769 4.50769231 1 1.9375 C0.67 1.298125 0.34 0.65875 0 0 Z " fill="#5480AD" transform="translate(390,285)"/>
<path d="M0 0 C0 3.51716303 -0.82445585 4.37121748 -3 7 C-3.66 6.67 -4.32 6.34 -5 6 C-4.1875 3.5625 -4.1875 3.5625 -3 1 C-2.01 0.67 -1.02 0.34 0 0 Z " fill="#6390B9" transform="translate(549,281)"/>
<path d="M0 0 C0.99 0 1.98 0 3 0 C1.25 5.75 1.25 5.75 -1 8 C-1.04241723 5.66705225 -1.04092937 3.33297433 -1 1 C-0.67 0.67 -0.34 0.34 0 0 Z " fill="#E2F0F7" transform="translate(243,272)"/>
<path d="M0 0 C0.66 0.33 1.32 0.66 2 1 C1.34 2.98 0.68 4.96 0 7 C-2 6 -2 6 -3 4 C-2.01 2.68 -1.02 1.36 0 0 Z " fill="#5E8BBB" transform="translate(259,253)"/>
<path d="M0 0 C0.625 2.0625 0.625 2.0625 1 4 C-0.32 4 -1.64 4 -3 4 C-3 3.01 -3 2.02 -3 1 C-4.32 0.67 -5.64 0.34 -7 0 C-2.25 -1.125 -2.25 -1.125 0 0 Z " fill="#E9E9EB" transform="translate(583,691)"/>
<path d="M0 0 C0 0.66 0 1.32 0 2 C-8.03571429 3.20535714 -8.03571429 3.20535714 -12 2 C-10.7625 1.67 -9.525 1.34 -8.25 1 C-7.55390625 0.814375 -6.8578125 0.62875 -6.140625 0.4375 C-4 0 -4 0 0 0 Z " fill="#CFE4F3" transform="translate(502,594)"/>
<path d="M0 0 C0.33 0.99 0.66 1.98 1 3 C1.99 3 2.98 3 4 3 C3.67 4.98 3.34 6.96 3 9 C1.22293791 6.33440687 0.12451727 3.9719385 -1 1 C-0.67 0.67 -0.34 0.34 0 0 Z " fill="#E0F0FA" transform="translate(496,423)"/>
<path d="M0 0 C0.66 0 1.32 0 2 0 C2 0.66 2 1.32 2 2 C2.66 2 3.32 2 4 2 C4.625 3.875 4.625 3.875 5 6 C4.34 6.66 3.68 7.32 3 8 C0 2.25 0 2.25 0 0 Z " fill="#DBEDF6" transform="translate(466,366)"/>
<path d="M0 0 C0.33 0.66 0.66 1.32 1 2 C1.639375 2.28875 2.27875 2.5775 2.9375 2.875 C5.42001234 4.22909764 5.96871397 5.42178493 7 8 C3.2047869 6.50902342 1.38957269 4.24299151 -1 1 C-0.67 0.67 -0.34 0.34 0 0 Z " fill="#D5EAF6" transform="translate(299,365)"/>
<path d="M0 0 C0.66 0 1.32 0 2 0 C2.33 2.64 2.66 5.28 3 8 C2.34 8 1.68 8 1 8 C0.67 5.36 0.34 2.72 0 0 Z " fill="#5A88B1" transform="translate(285,344)"/>
<path d="M0 0 C0.33 0.66 0.66 1.32 1 2 C0.34 2 -0.32 2 -1 2 C-1.268125 2.61875 -1.53625 3.2375 -1.8125 3.875 C-3 6 -3 6 -6 8 C-5.65120368 4.74456771 -4.97866739 3.98126893 -2.4375 1.75 C-1.633125 1.1725 -0.82875 0.595 0 0 Z " fill="#618AAE" transform="translate(331,312)"/>
<path d="M0 0 C0.33 0.66 0.66 1.32 1 2 C1.66 2 2.32 2 3 2 C2.34 4.31 1.68 6.62 1 9 C-0.61949011 6.42786866 -1.04408751 5.32330841 -0.625 2.25 C-0.41875 1.5075 -0.2125 0.765 0 0 Z " fill="#6190C0" transform="translate(235,294)"/>
<path d="M0 0 C0.66 0 1.32 0 2 0 C2.33 0.99 2.66 1.98 3 3 C1.68 4.32 0.36 5.64 -1 7 C-1.625 5.1875 -1.625 5.1875 -2 3 C-1.34 2.01 -0.68 1.02 0 0 Z " fill="#DEEFF7" transform="translate(546,288)"/>
<path d="M0 0 C0.33 0.66 0.66 1.32 1 2 C-0.25 4.5625 -0.25 4.5625 -2 7 C-2.99 7.33 -3.98 7.66 -5 8 C-3.8141763 4.62496331 -2.72426311 2.35277269 0 0 Z " fill="#E5E6EB" transform="translate(302,663)"/>
<path d="M0 0 C0 0.66 0 1.32 0 2 C-4.15267176 5.11450382 -4.15267176 5.11450382 -7.3125 4.6875 C-7.869375 4.460625 -8.42625 4.23375 -9 4 C-2.25 0 -2.25 0 0 0 Z " fill="#E7F6FC" transform="translate(534,582)"/>
<path d="M0 0 C2.5 2.3125 2.5 2.3125 5 5 C5 5.99 5 6.98 5 8 C2.5 6.25 2.5 6.25 0 4 C0 2.68 0 1.36 0 0 Z " fill="#D6EAF6" transform="translate(257,510)"/>
<path d="M0 0 C3.87132028 0.57352893 6.08172796 2.48704352 9 5 C6.23723823 4.47731534 3.6739124 3.89130413 1 3 C0.67 2.01 0.34 1.02 0 0 Z " fill="#6089B1" transform="translate(306,375)"/>
<path d="M0 0 C0.33 0 0.66 0 1 0 C1.3125 2.25 1.3125 2.25 1 5 C-1.5 7.3125 -1.5 7.3125 -4 9 C-2.94124926 5.59687262 -1.99097846 2.98646769 0 0 Z " fill="#CDE4F3" transform="translate(514,347)"/>
<path d="M0 0 C2.15377564 2.62198774 3.40072174 4.64404172 4 8 C3.01 8.495 3.01 8.495 2 9 C0.14223235 5.86501708 -0.20140476 3.62528568 0 0 Z " fill="#D8EAF8" transform="translate(485,334)"/>
<path d="M0 0 C0.66 0 1.32 0 2 0 C2.625 2.875 2.625 2.875 3 6 C2.34 6.66 1.68 7.32 1 8 C-0.35439668 5.29120665 -0.06501451 2.99066732 0 0 Z " fill="#5F8DB5" transform="translate(649,317)"/>
<path d="M0 0 C2.50037734 2.17424117 3.43628586 3.73045798 4 7 C0.26360784 5.75453595 -0.18756513 4.36595047 -2 1 C-1.34 0.67 -0.68 0.34 0 0 Z " fill="#D2E5F3" transform="translate(475,316)"/>
<path d="M0 0 C0.66 0 1.32 0 2 0 C1.67 2.31 1.34 4.62 1 7 C0.34 7 -0.32 7 -1 7 C-1.33 7.66 -1.66 8.32 -2 9 C-1.51421457 5.87709365 -1.0013988 3.00419641 0 0 Z " fill="#537DA6" transform="translate(233,299)"/>
<path d="M0 0 C0.66 0 1.32 0 2 0 C1.01 2.97 0.02 5.94 -1 9 C-1.33 9 -1.66 9 -2 9 C-1.125 2.25 -1.125 2.25 0 0 Z " fill="#DCEEFA" transform="translate(232,297)"/>
<path d="M0 0 C2.15377564 2.62198774 3.40072174 4.64404172 4 8 C3.01 8.495 3.01 8.495 2 9 C0.14223235 5.86501708 -0.20140476 3.62528568 0 0 Z " fill="#6A93B7" transform="translate(635,280)"/>
</svg>
